<svg width="236" height="176" viewBox="0 0 236 176" fill="none" xmlns="http://www.w3.org/2000/svg">
<path d="M0.500488 17.6249C0.500488 9.31645 0.500488 5.16222 3.0816 2.58111C5.66271 0 9.81695 0 18.1254 0H217.875C226.183 0 230.337 0 232.918 2.58111C235.5 5.16222 235.5 9.31646 235.5 17.6249V175.119H0.500488V17.6249Z" fill="#F4F9EE"/>
<path d="M151.625 107.523C153.724 108.751 155.565 110.396 157.042 112.362C158.519 114.328 159.603 116.575 160.23 118.975C162.469 127.221 169.317 148.694 169.317 148.694C169.317 148.694 173.229 153.432 173.647 156.939C174.064 160.446 173.229 168.935 171.968 170.52C171.603 170.979 171.134 171.34 170.603 171.57C170.071 171.801 169.493 171.894 168.918 171.841L152.446 170.233L145.956 125.532L151.625 107.523Z" fill="#95C353"/>
<path d="M97.1606 106.746C97.1606 106.746 85.3804 110.563 82.4458 113.855L92.0888 160.027L91.9172 174.6H147.772C147.772 173.879 148.273 126.224 148.273 126.224L151.625 107.523L131.787 103.93L127.874 100.762L105.793 101.916L102.436 105.366L97.1606 106.746Z" fill="#95C353"/>
<g opacity="0.3">
<path d="M101.646 146.804C101.474 146.413 101.224 145.988 100.816 145.902C100.144 145.759 99.6939 146.575 99.4667 147.243C97.6858 152.477 95.2182 157.437 92.1325 161.983L91.9888 169.074C95.234 166.254 98.4514 163.233 100.528 159.411C102.605 155.589 103.38 150.793 101.646 146.804Z" fill="black"/>
</g>
<path d="M82.4421 113.855C82.4421 113.855 78.5618 119.3 76.9531 122.855C75.3443 126.41 61.9879 156.257 61.1905 159.345C60.3931 162.432 58.3161 172.138 64.4125 174.39H76.9623L89.5538 148.179L90.1982 117.759L82.4421 113.855Z" fill="#95C353"/>
<path d="M77.751 155.456C77.751 155.456 77.4728 155.203 76.8933 154.864C76.0661 154.407 75.1792 154.076 74.26 153.881C73.628 153.739 72.9864 153.646 72.3407 153.604C71.5967 153.547 70.8486 153.601 70.12 153.767C68.4708 154.202 66.9946 155.157 65.8966 156.496C64.7801 157.82 63.9631 159.383 63.5044 161.072C63.1257 162.452 62.8743 163.866 62.7533 165.295C62.6328 166.517 62.5911 167.514 62.5493 168.196C62.5493 168.521 62.5123 168.783 62.503 168.988C62.5032 169.082 62.4908 169.175 62.4659 169.265C62.4599 169.173 62.4599 169.081 62.4659 168.988C62.4659 168.779 62.4659 168.511 62.4659 168.196C62.4659 167.504 62.4937 166.512 62.5911 165.281C62.6891 163.829 62.9267 162.39 63.3004 160.986C63.7559 159.259 64.5848 157.661 65.725 156.31C66.8573 154.933 68.382 153.958 70.0829 153.523C70.8265 153.364 71.5892 153.32 72.3453 153.394C72.9999 153.444 73.6495 153.548 74.2878 153.705C75.2173 153.917 76.1089 154.278 76.9304 154.773C77.1516 154.914 77.361 155.074 77.5562 155.251C77.628 155.312 77.6933 155.38 77.751 155.456Z" fill="#263238"/>
<path d="M71.8051 150.236C71.9422 150.194 72.0841 150.172 72.2269 150.169C72.6142 150.138 73.0033 150.138 73.3906 150.169C73.9673 150.204 74.5398 150.291 75.1013 150.431C76.4828 150.775 77.7792 151.412 78.9075 152.302C79.3671 152.662 79.7939 153.064 80.1824 153.504C80.4458 153.803 80.686 154.122 80.901 154.459C80.9885 154.575 81.0602 154.704 81.1142 154.84C81.0771 154.869 80.7341 154.363 80.0572 153.638C79.6573 153.225 79.2281 152.844 78.773 152.497C78.2127 152.077 77.6169 151.71 76.9928 151.4C76.3651 151.099 75.7138 150.853 75.0456 150.665C74.4977 150.52 73.9397 150.418 73.3767 150.36C72.4124 150.231 71.8051 150.283 71.8051 150.236Z" fill="#263238"/>
<path d="M83.1453 148.799C82.9511 148.807 82.7567 148.793 82.5658 148.756C82.1949 148.708 81.6617 148.651 80.9941 148.599C77.527 148.333 74.0426 148.762 70.7346 149.863C70.0994 150.073 69.5895 150.259 69.2418 150.398C69.0643 150.478 68.8795 150.541 68.6901 150.584C68.8496 150.47 69.0225 150.377 69.2047 150.307C69.5431 150.14 70.0484 149.93 70.6789 149.696C73.9895 148.49 77.5193 148.056 81.0127 148.427C81.6756 148.499 82.2134 148.58 82.5797 148.661C82.772 148.688 82.9614 148.735 83.1453 148.799Z" fill="#263238"/>
<path d="M118.887 123.294C118.836 123.249 118.792 123.196 118.757 123.137L118.414 122.659L117.153 120.865C116.073 119.29 114.561 117.095 112.786 114.519L112.98 114.49C112.303 116.532 111.557 118.785 110.774 121.171L110.723 121.318L110.593 121.233L110.333 121.061C109.323 120.395 108.405 119.593 107.603 118.675C106.861 117.82 106.207 116.89 105.651 115.898C104.724 114.219 104.004 112.429 103.504 110.568C103.169 109.311 102.898 108.037 102.693 106.75C102.619 106.321 102.563 105.973 102.517 105.71C102.504 105.621 102.483 105.533 102.456 105.448C102.456 105.39 102.424 105.362 102.429 105.357C102.433 105.352 102.619 105.834 102.786 106.736C102.953 107.638 103.217 108.936 103.671 110.506C104.185 112.349 104.915 114.122 105.845 115.783C106.4 116.757 107.048 117.671 107.779 118.513C108.567 119.409 109.468 120.192 110.458 120.841L110.713 121.013L110.537 121.08C111.33 118.694 112.081 116.456 112.767 114.399L112.837 114.189L112.962 114.371C114.705 116.971 116.207 119.186 117.259 120.77C117.765 121.543 118.187 122.158 118.469 122.607L118.78 123.084C118.823 123.15 118.858 123.22 118.887 123.294Z" fill="#263238"/>
<g opacity="0.3">
<path d="M133.422 145.334C132.922 150.719 134.056 156.13 136.668 160.824C139.264 165.471 143.075 169.618 147.817 171.842C147.97 167.103 147.748 161.52 147.901 156.782L133.422 145.334Z" fill="black"/>
</g>
<path d="M132.896 139.098C132.896 139.098 130.865 139.675 132.386 143.956C133.906 148.236 134.416 147.973 135.432 151.972C136.447 155.971 137.629 159.607 139.4 161.888C141.171 164.169 147.768 168.759 147.768 168.759L153.684 163.033C153.684 163.033 152.71 158.738 152.942 155.847C153.174 152.955 153.767 145.826 153.684 144.59C153.6 143.354 152.33 140.415 152.33 140.415V138.392L149.289 128.762C149.289 128.762 147.597 127.98 147.008 130.762L145.993 127.808C145.993 127.808 144.388 127.545 143.967 130.938C143.545 134.331 144.305 139.026 144.305 139.026L143.457 144.939L142.191 148.942L141.092 149.114C141.092 149.114 139.437 148.637 138.533 145.444C137.629 142.252 135.177 138.401 132.896 139.098Z" fill="#FFBE9D"/>
<path d="M151.72 154.244C151.72 154.244 151.72 154.172 151.692 154.029C151.664 153.886 151.664 153.652 151.65 153.39C151.618 152.808 151.576 152.001 151.525 151.004C151.432 148.928 151.307 146.037 151.159 142.663L151.182 142.735C151.03 142.573 150.839 142.457 150.628 142.4C150.417 142.343 150.195 142.346 149.986 142.41C149.759 142.467 149.545 142.569 149.357 142.712C149.17 142.854 149.011 143.034 148.892 143.24C148.372 144.094 148.344 145.211 148.182 146.285C147.862 148.723 147.556 151.056 147.278 153.161C147.139 154.22 146.991 155.222 146.791 156.153C146.604 157.016 146.357 157.864 146.054 158.691C145.795 159.45 145.563 160.123 145.419 160.757C145.291 161.28 145.227 161.817 145.229 162.356C145.245 162.82 145.323 163.279 145.461 163.721C145.405 163.614 145.359 163.502 145.322 163.387C145.212 163.056 145.149 162.71 145.136 162.361C145.114 161.807 145.166 161.254 145.289 160.715C145.452 160.006 145.655 159.308 145.897 158.624C146.183 157.8 146.416 156.957 146.592 156.1C146.782 155.179 146.926 154.192 147.056 153.123C147.325 151.004 147.626 148.685 147.941 146.242C148.015 145.703 148.071 145.163 148.164 144.629C148.24 144.089 148.416 143.569 148.683 143.097C148.821 142.866 149.002 142.665 149.216 142.506C149.43 142.347 149.673 142.233 149.93 142.171C150.18 142.094 150.446 142.091 150.698 142.162C150.949 142.232 151.176 142.375 151.353 142.572L151.376 142.606V142.644C151.492 146.018 151.59 148.909 151.659 150.99C151.659 151.997 151.701 152.803 151.72 153.376C151.72 153.638 151.72 153.853 151.72 154.015C151.727 154.091 151.727 154.168 151.72 154.244Z" fill="#EB996E"/>
<path d="M148.472 143.268C148.367 143.099 148.283 142.916 148.222 142.724C148.028 142.216 147.862 141.697 147.726 141.169C147.527 140.386 147.386 139.588 147.304 138.783C147.247 138.308 147.237 137.828 147.276 137.351C147.319 136.818 147.495 136.306 147.786 135.863C148.046 135.466 148.428 135.17 148.871 135.023L148.959 134.999L149.005 135.08C149.863 136.636 150.609 138.01 151.129 138.998L151.736 140.167C151.819 140.304 151.884 140.451 151.931 140.606C151.827 140.485 151.737 140.352 151.662 140.21L150.994 139.079C150.438 138.125 149.664 136.755 148.801 135.204L148.936 135.261C148.548 135.395 148.214 135.657 147.985 136.006C147.718 136.415 147.559 136.889 147.522 137.38C147.475 137.847 147.475 138.317 147.522 138.783C147.591 139.586 147.714 140.383 147.888 141.169C148.036 141.837 148.199 142.371 148.305 142.739C148.378 142.909 148.434 143.087 148.472 143.268Z" fill="#EB996E"/>
<path d="M147.055 144.051C147.014 143.868 146.995 143.681 147 143.493C147 143.083 146.963 142.577 146.94 141.98C146.902 140.702 146.861 138.936 146.838 136.984C146.768 135.316 146.793 133.644 146.912 131.979C146.97 131.473 147.075 130.975 147.227 130.49C147.272 130.307 147.346 130.133 147.445 129.975C147.275 130.639 147.152 131.315 147.079 131.998C146.963 133.262 147.079 135.028 147.079 136.98C147.079 138.931 147.116 140.697 147.111 141.976C147.111 142.577 147.111 143.083 147.111 143.493C147.112 143.681 147.094 143.868 147.055 144.051Z" fill="#EB996E"/>
<path d="M142.051 160.09C142.019 160.061 142.39 159.612 142.844 158.796C143.11 158.32 143.341 157.824 143.535 157.312C143.762 156.683 143.939 156.035 144.063 155.375C144.172 154.713 144.226 154.042 144.226 153.371C144.218 152.823 144.172 152.275 144.086 151.734C143.933 150.804 143.739 150.25 143.78 150.236C143.854 150.353 143.91 150.479 143.947 150.613C144.078 150.966 144.181 151.33 144.253 151.701C144.367 152.249 144.432 152.806 144.448 153.366C144.489 154.746 144.247 156.12 143.739 157.398C143.534 157.917 143.284 158.415 142.992 158.887C142.799 159.207 142.58 159.511 142.339 159.794C142.167 159.994 142.065 160.099 142.051 160.09Z" fill="#EB996E"/>
<path d="M152.437 157.107L157.569 158.939C157.569 158.939 162.474 156.329 165.853 158.939C169.233 161.549 172.168 168.426 171.24 171.207C171.24 171.207 168.922 174.175 167.133 174.61C165.343 175.044 158.459 173.321 155.589 172.701C152.719 172.081 147.768 168.769 147.768 168.769L152.437 157.107Z" fill="#FFBE9D"/>
<path d="M153.065 164.88C153.029 164.724 153.01 164.564 153.009 164.403C153.009 164.045 152.968 163.62 152.94 163.124C152.884 162.046 152.815 160.557 152.792 158.906C152.768 157.255 152.815 155.761 152.907 154.683C152.954 154.144 153.014 153.729 153.065 153.409C153.076 153.245 153.112 153.084 153.172 152.932C153.209 152.932 153.13 153.6 153.079 154.678C153.028 155.757 153.009 157.241 153.033 158.887C153.056 160.533 153.088 161.955 153.107 163.1C153.107 163.639 153.107 164.078 153.107 164.379C153.119 164.547 153.105 164.717 153.065 164.88Z" fill="#EB996E"/>
<path d="M169.996 158.72C169.464 158.151 168.894 157.622 168.289 157.135C166.805 155.992 165.025 155.327 163.174 155.222C161.323 155.118 159.483 155.579 157.886 156.548C157.238 156.964 156.619 157.425 156.032 157.927C156.154 157.752 156.296 157.592 156.454 157.45C156.871 157.051 157.326 156.696 157.812 156.391C159.424 155.357 161.307 154.861 163.204 154.969C165.101 155.078 166.919 155.786 168.41 156.997C168.861 157.354 169.274 157.759 169.643 158.204C169.78 158.361 169.898 158.534 169.996 158.72Z" fill="#263238"/>
<path d="M169.34 154.315C168.677 153.825 167.959 153.418 167.203 153.103C165.342 152.423 163.322 152.361 161.426 152.926C160.383 153.228 159.379 153.657 158.436 154.205C157.668 154.659 156.943 155.186 156.271 155.78C155.696 156.286 155.255 156.734 154.954 157.035C154.806 157.209 154.643 157.368 154.467 157.512C154.588 157.319 154.728 157.14 154.885 156.978C155.285 156.513 155.711 156.071 156.159 155.656C156.826 155.036 157.551 154.488 158.324 154.019C159.277 153.446 160.298 153.002 161.361 152.697C163.304 152.113 165.379 152.202 167.267 152.95C167.831 153.182 168.363 153.49 168.848 153.866C169.02 153.995 169.136 154.119 169.224 154.196C169.312 154.272 169.34 154.31 169.34 154.315Z" fill="#263238"/>
<path d="M169.375 150.498C169.375 150.545 168.447 150.264 166.973 150.059C166.102 149.938 165.224 149.881 164.345 149.887C163.268 149.899 162.194 149.998 161.132 150.183C160.072 150.383 159.029 150.667 158.012 151.032C157.182 151.335 156.375 151.699 155.596 152.12C154.266 152.836 153.515 153.418 153.487 153.375C153.644 153.218 153.817 153.077 154.002 152.955C154.204 152.791 154.416 152.642 154.637 152.506C154.892 152.339 155.179 152.144 155.513 151.962C156.292 151.519 157.103 151.136 157.938 150.817C158.962 150.432 160.017 150.139 161.09 149.939C162.162 149.752 163.248 149.658 164.335 149.658C165.225 149.662 166.113 149.737 166.992 149.882C167.367 149.93 167.701 150.02 167.993 150.082C168.247 150.135 168.498 150.202 168.744 150.283C168.96 150.335 169.171 150.407 169.375 150.498Z" fill="#263238"/>
<path d="M130.045 103.773C130.237 104.217 130.356 104.691 130.397 105.176C130.536 106.544 130.47 107.927 130.203 109.275C130.04 110.242 129.818 111.199 129.54 112.138C129.174 113.231 128.724 114.292 128.195 115.311C127.087 117.506 125.696 119.897 124.083 122.469L123.897 122.769V122.411C123.897 120.722 123.897 118.952 123.897 117.115L124.078 117.205L119.725 120.779L119.762 120.722C118.729 124.205 118.095 127.8 117.871 131.435C117.444 137.242 117.787 142.796 118.051 147.835C118.316 152.874 118.432 157.422 118.585 161.239C118.738 165.057 118.863 168.139 118.974 170.272C119.039 171.331 119.085 172.152 119.118 172.725C119.118 172.997 119.15 173.202 119.159 173.364C119.169 173.526 119.159 173.584 119.159 173.584C119.159 173.584 119.159 173.512 119.127 173.369C119.095 173.226 119.09 173.002 119.062 172.73C119.011 172.171 118.946 171.346 118.877 170.277C118.738 168.149 118.575 165.061 118.413 161.244C118.251 157.427 118.051 152.889 117.829 147.845C117.606 142.801 117.203 137.242 117.63 131.416C117.864 127.76 118.516 124.145 119.572 120.646V120.612H119.6L123.939 117.029L124.12 116.876V117.115C124.12 118.952 124.12 120.722 124.12 122.411L123.93 122.349C127.115 117.267 129.706 112.849 130.105 109.275C130.381 107.939 130.465 106.57 130.355 105.209C130.318 104.852 130.254 104.498 130.165 104.15C130.073 103.892 130.045 103.773 130.045 103.773Z" fill="#263238"/>
<path d="M121.735 165.324H121.587C121.249 165.346 120.933 165.503 120.706 165.76C120.479 166.018 120.358 166.357 120.368 166.705C120.379 167.053 120.521 167.383 120.764 167.625C121.007 167.867 121.332 168.003 121.67 168.003C122.009 168.003 122.334 167.867 122.577 167.625C122.82 167.383 122.962 167.053 122.972 166.705C122.983 166.357 122.862 166.018 122.635 165.76C122.407 165.503 122.091 165.346 121.754 165.324H121.735Z" fill="white"/>
<path d="M121.731 146.933H121.582C121.246 146.955 120.931 147.111 120.705 147.368C120.478 147.625 120.358 147.963 120.368 148.309C120.379 148.656 120.521 148.985 120.763 149.226C121.005 149.468 121.329 149.603 121.666 149.603C122.003 149.603 122.327 149.468 122.569 149.226C122.811 148.985 122.952 148.656 122.963 148.309C122.974 147.963 122.853 147.625 122.627 147.368C122.4 147.111 122.086 146.955 121.749 146.933H121.731Z" fill="white"/>
<path d="M121.581 130.481C121.927 130.504 122.268 130.385 122.529 130.15C122.79 129.915 122.949 129.582 122.972 129.226C122.995 128.87 122.879 128.519 122.651 128.25C122.422 127.982 122.099 127.818 121.753 127.794H121.581C121.235 127.794 120.902 127.936 120.657 128.189C120.412 128.441 120.274 128.783 120.274 129.14C120.274 129.497 120.412 129.839 120.657 130.092C120.902 130.344 121.235 130.486 121.581 130.486V130.481Z" fill="white"/>
<path d="M101.544 82.2236C99.9211 80.3674 98.2985 78.4968 97.0978 76.3209C95.8971 74.145 95.2063 71.6017 95.5957 69.1633C95.8275 67.7318 96.4209 66.3479 96.5229 64.8687C96.6527 62.8646 95.8368 60.7698 96.5229 58.8945C97.5985 55.9551 101.442 55.5018 103.769 53.4738C105.582 51.8943 106.463 49.3319 108.456 48.0053C110.199 46.841 112.438 46.8697 114.483 47.1655C116.527 47.4613 118.604 48.0006 120.663 47.7143C122.128 47.5138 123.509 46.9031 124.942 46.5356C126.374 46.1682 127.983 46.0585 129.258 46.841C130.533 47.6236 131.256 49.4703 130.417 50.7252C132.8 49.5943 135.827 51.5078 136.481 54.1227C137.135 56.7376 135.827 59.5673 133.806 61.2803C131.785 62.9934 129.17 63.8094 126.597 64.3104C119.3 65.7419 111.377 64.926 105.086 60.8604" fill="#263238"/>
<path d="M127.212 107.48C126.855 104.617 126.563 102.265 126.545 101.969C126.545 101.969 135.78 99.8312 135.27 90.2209C135.024 85.5732 133.763 76.0488 132.521 67.4453C131.882 62.9853 129.634 58.9367 126.225 56.1067C122.815 53.2767 118.495 51.8731 114.125 52.1757L113.197 52.233C103.531 53.4879 99.1595 62.6402 100.643 72.5559L105.863 105.801C105.863 105.801 108.089 113.154 112.85 114.428L118.877 123.265L119.869 119.448L124.347 115.43C125.205 114.391 125.947 113.256 126.559 112.047C127.242 110.635 127.471 109.035 127.212 107.48Z" fill="#FFBE9D"/>
<path d="M126.546 101.836C126.546 101.836 120.681 102.733 114.149 99.1108C114.149 99.1108 117.478 105.825 126.731 104.322L126.546 101.836Z" fill="#EB996E"/>
<path d="M129.516 75.7103C129.542 76.0679 129.432 76.4218 129.208 76.6971C128.985 76.9724 128.666 77.1473 128.32 77.1848C128.151 77.2102 127.979 77.2006 127.814 77.1564C127.649 77.1123 127.495 77.0345 127.359 76.9277C127.224 76.821 127.111 76.6873 127.027 76.5348C126.942 76.3822 126.889 76.2138 126.869 76.0395C126.838 75.6791 126.947 75.3207 127.172 75.0426C127.397 74.7645 127.72 74.5894 128.07 74.5555C128.239 74.5308 128.411 74.5413 128.576 74.5864C128.741 74.6314 128.895 74.7101 129.03 74.8178C129.165 74.9255 129.278 75.06 129.361 75.2133C129.445 75.3666 129.497 75.5356 129.516 75.7103Z" fill="#263238"/>
<path d="M130.83 72.303C130.677 72.4939 129.615 71.7924 128.183 71.8974C126.75 72.0024 125.763 72.8088 125.577 72.6466C125.499 72.575 125.647 72.241 126.083 71.864C126.673 71.3781 127.396 71.093 128.15 71.048C128.897 70.9922 129.641 71.1846 130.274 71.5968C130.737 71.9022 130.904 72.2171 130.83 72.303Z" fill="#263238"/>
<path d="M115.974 76.7075C116.001 77.0648 115.891 77.4189 115.667 77.6937C115.444 77.9684 115.124 78.142 114.778 78.1772C114.609 78.2033 114.437 78.1943 114.272 78.1507C114.107 78.1072 113.953 78.0299 113.817 77.9235C113.682 77.8171 113.569 77.6837 113.484 77.5314C113.4 77.3791 113.346 77.2108 113.327 77.0367C113.3 76.6799 113.41 76.3265 113.632 76.0514C113.855 75.7763 114.172 75.6009 114.518 75.5622C114.687 75.5368 114.859 75.5464 115.024 75.5905C115.19 75.6346 115.345 75.7123 115.48 75.819C115.616 75.9257 115.73 76.0593 115.814 76.2119C115.899 76.3645 115.953 76.533 115.974 76.7075Z" fill="#263238"/>
<path d="M116.746 73.5491C116.589 73.74 115.532 73.0386 114.099 73.1435C112.666 73.2485 111.66 74.055 111.494 73.8832C111.41 73.8116 111.558 73.4776 111.994 73.1006C112.587 72.6154 113.311 72.3305 114.067 72.2846C114.812 72.2295 115.554 72.4219 116.185 72.8334C116.649 73.1483 116.82 73.4633 116.746 73.5491Z" fill="#263238"/>
<path d="M122.656 84.1374C122.656 84.0515 123.527 83.832 124.974 83.5409C125.335 83.4789 125.679 83.3787 125.725 83.121C125.729 82.7287 125.618 82.3442 125.405 82.0187L124.135 79.2225C122.368 75.2428 121.061 71.9551 121.219 71.8835C121.376 71.8119 122.934 74.9804 124.705 78.9648L125.929 81.7801C126.188 82.2188 126.29 82.7372 126.216 83.2451C126.171 83.3812 126.097 83.5051 125.999 83.6075C125.901 83.71 125.782 83.7883 125.651 83.8368C125.451 83.9079 125.244 83.9528 125.034 83.9704C123.569 84.1517 122.67 84.2185 122.656 84.1374Z" fill="#263238"/>
<path d="M116.74 67.7365C116.624 68.1516 115.183 68.0562 113.495 68.3807C111.808 68.7052 110.496 69.273 110.25 68.9294C110.139 68.7624 110.352 68.3711 110.876 67.9417C111.577 67.4175 112.385 67.0637 113.239 66.9067C114.092 66.7497 114.969 66.7936 115.804 67.035C116.458 67.2498 116.791 67.5456 116.74 67.7365Z" fill="#263238"/>
<path d="M130.019 68.0656C129.792 68.4187 128.782 68.142 127.59 68.204C126.399 68.266 125.411 68.581 125.156 68.247C125.045 68.0847 125.184 67.7364 125.62 67.388C126.186 66.9687 126.86 66.7314 127.557 66.7059C128.255 66.6804 128.944 66.868 129.537 67.2449C129.964 67.5598 130.121 67.8748 130.019 68.0656Z" fill="#263238"/>
<path d="M101.886 79.6425C101.724 79.5852 95.3494 78.1346 95.9799 84.6862C96.6104 91.2379 103.5 89.1001 103.5 88.914C103.5 88.7279 101.886 79.6425 101.886 79.6425Z" fill="#FFBE9D"/>
<path d="M100.684 86.7619C100.651 86.7619 100.582 86.8526 100.401 86.9575C100.15 87.1019 99.8536 87.1396 99.5758 87.0625C98.8757 86.8764 98.185 85.8362 98.0598 84.6766C97.9906 84.1167 98.0428 83.5479 98.2128 83.0113C98.2543 82.8018 98.3443 82.6058 98.475 82.4396C98.6057 82.2735 98.7734 82.1423 98.9638 82.0569C99.0884 82.0096 99.2251 82.0085 99.3503 82.0538C99.4756 82.0991 99.5815 82.188 99.65 82.3051C99.752 82.4816 99.7241 82.6152 99.7566 82.62C99.7891 82.6248 99.8818 82.5007 99.8076 82.2335C99.7554 82.0744 99.6524 81.9382 99.5155 81.847C99.4212 81.7818 99.3153 81.7365 99.2039 81.7135C99.0926 81.6906 98.9779 81.6905 98.8665 81.7134C98.6108 81.7941 98.3794 81.9408 98.1944 82.1396C98.0093 82.3384 97.8768 82.5826 97.8095 82.8491C97.5921 83.4439 97.5205 84.0847 97.6008 84.7148C97.7677 86.0318 98.528 87.2009 99.4877 87.3774C99.6641 87.4119 99.8458 87.405 100.019 87.3571C100.193 87.3091 100.353 87.2215 100.489 87.1007C100.688 86.9194 100.721 86.7714 100.684 86.7619Z" fill="#EB996E"/>
<path d="M132.049 58.4988C131.613 61.1089 126.486 63.4996 122.211 63.3707C118.285 63.2514 116.342 61.2473 113.491 59.8205C111.683 58.9187 111.683 58.9187 109.231 59.3434C107.251 59.6726 106.222 62.0824 105.109 63.8002C107.228 68.5719 106.37 74.0881 105.471 79.2416C105.432 79.8228 105.205 80.3738 104.826 80.8067C104.112 81.4557 102.972 81.0692 102.249 80.4059C101.122 79.3418 100.607 77.7671 100.241 76.2402C99.3429 72.7672 99.1285 69.1443 99.6107 65.5848C100.098 62.0079 101.594 58.6567 103.913 55.9459C106.946 52.6564 111.101 50.7078 115.503 50.5109C119.883 50.3493 124.201 51.6115 127.844 54.1183C129.532 55.2587 131.089 56.6664 132.063 58.494" fill="#263238"/>
<path d="M123.599 87.4397L120.354 85.8841C120.176 85.7758 119.972 85.7227 119.765 85.7314C119.537 85.7843 119.336 85.9241 119.204 86.1227C118.824 86.5913 118.586 87.1652 118.522 87.7723C118.458 88.3793 118.569 88.9924 118.843 89.5345C119.14 90.0625 119.607 90.4669 120.163 90.6778C120.719 90.8887 121.33 90.8927 121.888 90.6892C123.038 90.2121 123.594 88.8235 123.687 87.5446L123.599 87.4397Z" fill="#EB996E"/>
<path d="M121.991 90.9373C121.991 90.9659 121.838 91.0613 121.527 91.1329C121.062 91.2188 120.584 91.1827 120.136 91.0279C119.452 90.7907 118.878 90.2989 118.528 89.6489C118.306 89.2529 118.173 88.8108 118.138 88.3551C118.104 87.8994 118.169 87.4415 118.328 87.0149C118.491 86.5727 118.748 86.1734 119.079 85.8458C119.24 85.6892 119.417 85.5516 119.608 85.4354C119.722 85.3655 119.851 85.3246 119.983 85.3161C120.112 85.3108 120.24 85.3353 120.359 85.3877C120.532 85.4775 120.701 85.5763 120.864 85.6836L121.305 85.9651L122.097 86.4709C123.057 87.1008 123.637 87.5207 123.604 87.578C123.572 87.6352 122.932 87.3298 121.926 86.7763L121.105 86.2991L120.642 86.0367C120.484 85.9556 120.317 85.8458 120.178 85.7885C120.121 85.7604 120.057 85.749 119.994 85.7558C119.931 85.7625 119.871 85.7871 119.821 85.8267C119.667 85.9267 119.524 86.0435 119.395 86.1751C119.119 86.457 118.905 86.7951 118.764 87.1676C118.63 87.529 118.572 87.916 118.596 88.3022C118.62 88.6884 118.725 89.0647 118.903 89.4055C119.192 89.9766 119.666 90.4257 120.243 90.6748C120.642 90.8403 121.069 90.923 121.499 90.9182C121.805 90.9325 121.977 90.9039 121.991 90.9373Z" fill="#263238"/>
<path d="M120.968 75.8773C120.922 75.3182 120.837 74.7632 120.713 74.2167C120.483 73.303 120.071 72.4489 119.501 71.7092C118.932 70.9694 118.218 70.3605 117.407 69.9214C116.595 69.4824 115.703 69.2229 114.788 69.1598C113.873 69.0966 112.956 69.2312 112.095 69.5547C111.501 69.774 110.943 70.0845 110.439 70.4757C109.903 70.8712 109.433 71.3549 109.049 71.9072C108.222 73.0571 107.776 74.4495 107.776 75.8797C107.776 77.3099 108.222 78.7023 109.049 79.8522C109.433 80.4045 109.903 80.8881 110.439 81.2837C110.943 81.6749 111.501 81.9854 112.095 82.2046C112.956 82.5252 113.873 82.6574 114.787 82.5928C115.701 82.5283 116.592 82.2684 117.403 81.8298C118.213 81.3911 118.927 80.7834 119.497 80.0452C120.067 79.3071 120.481 78.4548 120.713 77.5426C120.836 76.9976 120.921 76.4443 120.968 75.8868C120.973 75.9232 120.973 75.9602 120.968 75.9966C120.968 76.0825 120.968 76.1922 120.968 76.3211C120.972 76.4984 120.96 76.6758 120.931 76.8507C120.905 77.092 120.863 77.3311 120.806 77.5665C120.659 78.2161 120.417 78.8389 120.087 79.4132C119.295 80.8062 118.054 81.8697 116.58 82.4189C115.105 82.9681 113.49 82.9682 112.016 82.4194C111.401 82.1932 110.824 81.8714 110.305 81.465C109.752 81.0569 109.266 80.5589 108.868 79.9906C108.012 78.7994 107.549 77.3567 107.549 75.8749C107.549 74.3931 108.012 72.9504 108.868 71.7593C109.263 71.19 109.747 70.6918 110.3 70.2848C110.82 69.8785 111.397 69.5566 112.011 69.3305C113.147 68.9106 114.372 68.8117 115.558 69.0442C116.496 69.229 117.386 69.6184 118.166 70.1863C118.947 70.7542 119.6 71.4874 120.082 72.3367C120.412 72.911 120.654 73.5337 120.801 74.1833C120.859 74.4187 120.9 74.6579 120.926 74.8991C120.955 75.074 120.967 75.2514 120.963 75.4288C120.963 75.5576 120.963 75.6673 120.963 75.7532C120.971 75.7941 120.972 75.8359 120.968 75.8773Z" fill="#263238"/>
<path d="M136.841 75.2328C136.796 74.6884 136.714 74.1479 136.595 73.6152C136.224 72.172 135.391 70.8996 134.231 70.003C133.441 69.3843 132.519 68.9674 131.542 68.7862C130.421 68.5744 129.266 68.6749 128.195 69.0772C127.619 69.2917 127.077 69.5924 126.586 69.9696C126.07 70.3586 125.616 70.8288 125.242 71.3629C124.44 72.4846 124.008 73.8405 124.008 75.2328C124.008 76.6251 124.44 77.981 125.242 79.1027C125.615 79.6364 126.069 80.1052 126.586 80.4913C127.076 80.8717 127.618 81.1741 128.195 81.3884C129.266 81.7885 130.421 81.8889 131.542 81.6794C132.519 81.4983 133.441 81.0813 134.231 80.4626C135.391 79.5661 136.224 78.2936 136.595 76.8504C136.714 76.3177 136.796 75.7772 136.841 75.2328C136.852 75.3741 136.852 75.5162 136.841 75.6575C136.843 75.8316 136.83 76.0056 136.804 76.1776C136.779 76.4124 136.739 76.6452 136.684 76.8743C136.388 78.124 135.751 79.2603 134.847 80.1484C133.943 81.0364 132.811 81.639 131.584 81.8846C130.427 82.1094 129.233 82.0122 128.125 81.6031C126.9 81.1437 125.833 80.324 125.056 79.2458C124.222 78.084 123.772 76.6775 123.772 75.2328C123.772 73.7881 124.222 72.3816 125.056 71.2198C125.833 70.1416 126.9 69.3219 128.125 68.8625C129.233 68.4534 130.427 68.3563 131.584 68.581C132.811 68.8266 133.943 69.4292 134.847 70.3172C135.751 71.2053 136.388 72.3416 136.684 73.5913C136.739 73.8204 136.779 74.0532 136.804 74.288C136.83 74.46 136.843 74.634 136.841 74.8081C136.852 74.9494 136.852 75.0915 136.841 75.2328Z" fill="#263238"/>
<path d="M123.901 73.7251C123.874 73.749 123.721 73.6201 123.438 73.4818C123.073 73.3031 122.673 73.2133 122.27 73.2193C121.867 73.2253 121.471 73.33 121.115 73.5247C120.837 73.6726 120.689 73.811 120.652 73.7824C120.614 73.7538 120.735 73.5724 121.013 73.372C121.38 73.1152 121.811 72.9743 122.254 72.9666C122.697 72.959 123.133 73.085 123.507 73.3291C123.79 73.5199 123.901 73.706 123.901 73.7251Z" fill="#263238"/>
<path d="M108.068 74.9038C107.151 75.7615 106.182 76.5583 105.166 77.2897C104.195 78.0847 103.176 78.8162 102.116 79.4799C103.032 78.6191 104.003 77.822 105.023 77.094C105.991 76.2973 107.008 75.5657 108.068 74.9038Z" fill="#263238"/>
<g opacity="0.3">
<path d="M102.578 105.958C101.934 112.433 104.326 119.271 109.375 123.194C109.769 123.504 110.265 123.809 110.733 123.633C111.045 123.477 111.295 123.214 111.438 122.888C112.852 120.374 113.382 117.435 112.94 114.566C112.142 116.733 111.456 118.861 110.649 121.123C106.259 118.374 103.505 112.533 102.578 105.958Z" fill="black"/>
</g>
<path opacity="0.3" d="M119.668 120.684L123.377 119.291L123.989 125.737C123.989 125.737 127.986 118.241 129.641 114.824C131.296 111.408 130.443 105.367 130.443 105.367C130.443 105.367 131.031 110.616 127.031 117.329L124.008 122.388V117.091L119.668 120.684Z" fill="black"/>
<g opacity="0.3">
<path d="M76.6165 153.447C74.9257 152.708 73.0683 152.469 71.2526 152.755C69.3177 152.918 67.4666 153.639 65.9118 154.836C64.4097 156.081 63.3945 158.047 63.5938 160.023L63.7792 160.047C65.0727 156.449 67.6411 153.843 70.9559 153.514C74.2706 153.185 77.502 154.712 79.7643 157.217C79.5186 155.347 78.2484 154.244 76.6165 153.447Z" fill="black"/>
</g>
<g opacity="0.3">
<path d="M170.236 157.107C168.951 155.75 167.271 154.86 165.451 154.573C163.866 154.3 162.242 154.397 160.698 154.857C159.154 155.317 157.73 156.129 156.532 157.231L157.236 156.639C159.029 155.528 161.087 154.953 163.18 154.979C165.28 155.016 167.294 155.844 168.84 157.308C170.231 158.663 171.061 160.5 171.854 162.289C171.982 161.356 171.903 160.404 171.623 159.507C171.343 158.609 170.869 157.789 170.236 157.107Z" fill="black"/>
</g>
<path d="M146.368 127.188C146.405 127.009 146.461 126.834 146.535 126.668C146.678 126.291 146.854 125.828 147.058 125.279C147.522 124.11 148.125 122.497 148.774 120.698C149.423 118.899 149.984 117.262 150.387 116.079L150.851 114.671C150.9 114.496 150.969 114.326 151.055 114.166C151.04 114.348 151.001 114.528 150.939 114.7C150.851 115.044 150.712 115.53 150.531 116.131C150.169 117.334 149.631 118.995 148.982 120.784C148.333 122.573 147.689 124.196 147.198 125.346C146.956 125.923 146.734 126.386 146.599 126.706C146.542 126.876 146.464 127.037 146.368 127.188Z" fill="#263238"/>
<path d="M87.9185 127.656C87.8536 127.656 87.3482 125.399 86.7919 122.583C86.2356 119.768 85.8369 117.502 85.8879 117.463C85.9389 117.425 86.4535 119.72 87.0098 122.536C87.5661 125.351 87.9834 127.642 87.9185 127.656Z" fill="#263238"/>
<path d="M87.0452 156.043C87.1935 156.119 85.3484 141.174 85.3484 141.174C85.3484 141.174 86.512 129.832 87.1657 129.307V125.303C87.1657 125.303 88.9691 124.182 89.4513 125.995C89.4513 125.995 91.0507 124.564 91.3057 127.966C91.5607 131.368 91.6442 134.842 91.6442 134.842L95.2 143.994L95.7841 144.3C95.7841 144.3 96.5491 137.142 96.9942 136.073C97.4392 135.004 97.7452 132.451 99.4281 132.838C101.111 133.224 101.255 134.656 100.953 136.994C100.652 139.332 100.272 141.766 100.416 143.264C100.559 144.763 101.222 148.098 101.018 150.742C100.814 153.385 99.4049 156.172 97.9306 158.128C96.4564 160.085 93.633 164.136 92.1031 165.353C91.6071 165.782 87.0452 156.043 87.0452 156.043Z" fill="#FFBE9D"/>
<path d="M88.8411 143.88C88.8179 143.667 88.8179 143.453 88.8411 143.24C88.8689 142.763 88.9106 142.2 88.957 141.503C89.0636 140.038 89.2305 138.015 89.4206 135.777C89.5226 134.665 89.62 133.606 89.708 132.633C89.761 132.184 89.761 131.731 89.708 131.282C89.6587 130.898 89.497 130.539 89.2444 130.251C89.0592 130.046 88.8347 129.882 88.585 129.769C88.3354 129.657 88.0659 129.598 87.7934 129.598C87.5894 129.608 87.3864 129.633 87.186 129.674C87.2316 129.641 87.2816 129.616 87.3344 129.598C87.4831 129.54 87.6394 129.507 87.798 129.498C88.0903 129.48 88.3828 129.528 88.6556 129.638C88.9284 129.747 89.1751 129.916 89.3789 130.132C89.6592 130.442 89.839 130.834 89.8935 131.254C89.9516 131.718 89.9516 132.188 89.8935 132.652C89.8101 133.606 89.7173 134.689 89.6246 135.801C89.4253 138.034 89.2305 140.053 89.0776 141.527L88.8875 143.259C88.8893 143.467 88.8738 143.675 88.8411 143.88Z" fill="#EB996E"/>
<path d="M90.7466 137.767C90.4876 138.13 90.2757 138.527 90.1161 138.946C89.8333 140.003 89.6364 141.082 89.5273 142.172C89.3326 143.451 89.1472 144.605 88.9988 145.44C88.945 145.896 88.8487 146.345 88.7114 146.781C88.7131 146.322 88.7535 145.864 88.8319 145.412C88.9339 144.572 89.0961 143.412 89.2955 142.134C89.4948 140.855 89.6247 139.686 89.9677 138.884C90.0897 138.57 90.2603 138.278 90.4731 138.02C90.626 137.829 90.7373 137.758 90.7466 137.767Z" fill="#EB996E"/>
<path d="M89.4401 125.8C89.5046 125.952 89.5468 126.112 89.5652 126.277C89.6301 126.582 89.7089 127.026 89.797 127.58C89.9732 128.682 90.1679 130.214 90.2931 131.917C90.4183 133.621 90.4414 135.167 90.4229 136.283C90.4229 136.842 90.3997 137.295 90.3765 137.605C90.3804 137.766 90.3617 137.927 90.3209 138.082C90.2647 137.483 90.2415 136.881 90.2514 136.279C90.2282 135.162 90.1725 133.625 90.052 131.931C89.9315 130.238 89.7646 128.706 89.6301 127.599C89.5322 127.004 89.4687 126.403 89.4401 125.8Z" fill="#EB996E"/>
<path d="M99.6975 139.81C99.5217 139.926 99.3207 139.997 99.1122 140.015C98.9036 140.034 98.6939 139.999 98.5014 139.915C97.8199 139.705 97.5047 139.165 97.5742 139.142C97.8934 139.35 98.2301 139.529 98.5802 139.676C98.9484 139.752 99.3221 139.797 99.6975 139.81Z" fill="#EB996E"/>
<path d="M87.2365 154.182L77.8439 158.247H72.2435C72.2435 158.247 66.7081 160.027 65.8551 165.371C65.002 170.716 64.8815 173.46 67.3154 174.123C69.7493 174.786 76.6246 174.858 80.0321 173.693C83.4396 172.529 92.3686 165.104 92.3686 165.104L93.2263 159.741L87.2365 154.182Z" fill="#FFBE9D"/>
<path d="M89.4419 160.09C89.4419 160.09 89.3353 160.008 89.173 159.837C88.9494 159.587 88.7463 159.319 88.5657 159.035C87.9776 158.091 87.5351 157.059 87.2537 155.976C86.9629 154.903 86.7689 153.804 86.6742 152.693C86.6117 152.235 86.5993 151.771 86.6371 151.31C86.7376 151.757 86.8057 152.212 86.8411 152.67C86.9842 153.763 87.1995 154.846 87.4855 155.91C87.7654 156.971 88.1768 157.991 88.7094 158.944C89.1313 159.665 89.4744 160.056 89.4419 160.09Z" fill="#EB996E"/>
<path d="M93.5414 161.783C93.7901 161.115 93.9688 160.42 94.0745 159.713C94.2849 157.986 93.8324 156.243 92.8135 154.855C92.2433 154.034 91.5989 153.318 91.0565 152.622C90.5625 152.014 90.1364 151.352 89.7862 150.646C89.5563 150.165 89.3999 149.65 89.3226 149.119C89.2942 148.926 89.2942 148.73 89.3226 148.537C89.4313 149.243 89.6472 149.928 89.9624 150.565C90.3275 151.246 90.761 151.886 91.2558 152.474C91.7982 153.151 92.4473 153.867 93.0314 154.707C93.5997 155.495 93.9994 156.397 94.2043 157.355C94.3623 158.141 94.3827 158.949 94.2646 159.741C94.1867 160.27 94.0434 160.786 93.8381 161.278C93.7639 161.449 93.6944 161.578 93.648 161.664C93.6017 161.75 93.546 161.788 93.5414 161.783Z" fill="#EB996E"/>
<path d="M79.0575 138.497C78.2243 137.106 77.4599 135.673 76.7673 134.202C75.5619 131.816 74.6347 129.831 74.6904 129.798C75.5236 131.189 76.288 132.622 76.9806 134.092C77.7454 135.523 78.4386 136.993 79.0575 138.497Z" fill="white"/>
<path d="M94.2329 121.085C94.6282 119.862 95.1005 118.666 95.6469 117.506C96.1212 116.314 96.6677 115.154 97.2834 114.032C96.8857 115.255 96.4135 116.45 95.8694 117.611C95.3964 118.804 94.8497 119.964 94.2329 121.085Z" fill="white"/>
<path d="M109.122 132.385C108.353 131.623 107.64 130.803 106.99 129.932C106.281 129.112 105.632 128.24 105.047 127.322C105.817 128.082 106.529 128.902 107.175 129.774C107.887 130.593 108.537 131.466 109.122 132.385Z" fill="white"/>
<path d="M105.7 147.926C106.17 147.054 106.706 146.221 107.304 145.435C107.842 144.605 108.445 143.821 109.107 143.092C108.638 143.965 108.102 144.798 107.503 145.583C106.968 146.416 106.365 147.2 105.7 147.926Z" fill="white"/>
<path d="M101.088 169.881C100.872 169.586 100.69 169.265 100.546 168.927C100.24 168.316 99.8458 167.462 99.4471 166.502C99.0484 165.543 98.7285 164.651 98.5199 164.007C98.3812 163.664 98.2817 163.305 98.2231 162.938C98.4141 163.255 98.5696 163.592 98.6867 163.945L99.6835 166.402C100.068 167.314 100.411 168.139 100.713 168.85C100.875 169.178 101.001 169.524 101.088 169.881Z" fill="white"/>
<path d="M114.165 160.547C113.217 160.483 112.275 160.338 111.35 160.113C110.406 159.969 109.476 159.743 108.569 159.436C110.45 159.644 112.311 160.016 114.132 160.547H114.165Z" fill="white"/>
<path d="M124.372 140.033C125.202 138.926 126.097 137.871 127.051 136.875C127.948 135.819 128.905 134.818 129.916 133.878C129.082 134.985 128.186 136.042 127.232 137.042C126.335 138.094 125.38 139.093 124.372 140.033Z" fill="white"/>
<path d="M134.566 167.39C134.515 167.438 133.017 165.648 131.218 163.406C129.42 161.163 128.006 159.302 128.057 159.259C128.108 159.216 129.605 161.001 131.404 163.243C133.203 165.486 134.607 167.347 134.566 167.39Z" fill="white"/>
<path d="M71.1459 155.733C71.1783 155.8 69.8107 156.515 68.3179 157.694C66.8251 158.873 65.7866 160.037 65.731 159.985C65.8995 159.682 66.1121 159.409 66.3615 159.173C66.9167 158.563 67.5216 158.003 68.1695 157.498C68.8147 156.992 69.5002 156.541 70.2187 156.153C70.5062 155.967 70.8186 155.826 71.1459 155.733Z" fill="white"/>
<path d="M74.9615 145.177C74.667 145.852 74.3016 146.492 73.8721 147.086C73.5061 147.725 73.0723 148.32 72.5786 148.861C72.874 148.186 73.2393 147.546 73.6681 146.952C74.0331 146.313 74.467 145.717 74.9615 145.177Z" fill="white"/>
<path d="M83.5714 155.542C82.8291 154.327 82.5118 152.888 82.672 151.462C82.7416 151.462 82.7647 152.416 83.0197 153.528C83.2747 154.64 83.6363 155.508 83.5714 155.542Z" fill="white"/>
<path d="M84.8476 122.655C84.2712 122.862 83.6713 122.992 83.0627 123.041C82.4641 123.171 81.8513 123.217 81.2407 123.18C81.8188 122.973 82.4202 122.843 83.0302 122.793C83.6277 122.666 84.2385 122.62 84.8476 122.655Z" fill="white"/>
<path d="M91.3062 110.854C90.3077 111.614 89.2167 112.237 88.061 112.705C88.5354 112.291 89.0607 111.943 89.6233 111.67C90.1485 111.326 90.7139 111.052 91.3062 110.854Z" fill="white"/>
<path d="M109.484 115.84C108.829 115.155 108.231 114.414 107.695 113.626C107.1 112.886 106.567 112.096 106.1 111.264C107.354 112.686 108.487 114.217 109.484 115.84Z" fill="white"/>
<path d="M132.555 127.703C131.277 126.407 130.316 124.817 129.75 123.065C129.82 123.036 130.316 124.148 131.095 125.422C131.874 126.696 132.611 127.655 132.555 127.703Z" fill="white"/>
<path d="M141.365 130.69C140.806 132.368 140.092 133.987 139.233 135.524C139.48 134.674 139.801 133.848 140.193 133.057C140.51 132.232 140.903 131.439 141.365 130.69Z" fill="white"/>
<path d="M142.598 118.317C141.755 117.475 140.971 116.573 140.252 115.616C139.471 114.714 138.75 113.757 138.096 112.753C139.718 114.5 141.222 116.359 142.598 118.317Z" fill="white"/>
<path d="M129.147 108.268C129 107.508 128.93 106.734 128.939 105.959C128.869 105.185 128.88 104.406 128.971 103.635C129.118 104.395 129.188 105.169 129.18 105.944C129.252 106.718 129.242 107.497 129.147 108.268Z" fill="white"/>
<path d="M140.132 107.643C139.192 107.896 138.234 108.07 137.266 108.163C136.311 108.335 135.343 108.426 134.374 108.435C135.313 108.181 136.271 108.007 137.239 107.915C138.194 107.742 139.162 107.651 140.132 107.643Z" fill="white"/>
<path d="M157.385 120.703C156.742 119.616 156.166 118.488 155.661 117.325C155.088 116.197 154.586 115.032 154.159 113.837C154.805 114.924 155.383 116.052 155.888 117.215C156.459 118.344 156.959 119.509 157.385 120.703Z" fill="white"/>
<path d="M154.5 131.988C154.694 130.165 155.045 128.364 155.548 126.605C155.492 127.521 155.357 128.43 155.145 129.321C155.01 130.228 154.794 131.121 154.5 131.988Z" fill="white"/>
<path d="M162.49 140.883C161.949 139.693 161.484 138.469 161.099 137.218C160.639 135.994 160.257 134.742 159.954 133.467C160.491 134.659 160.956 135.885 161.344 137.137C161.802 138.359 162.185 139.61 162.49 140.883Z" fill="white"/>
<path d="M161.378 146.089C160.55 145.96 159.755 145.667 159.037 145.225C158.282 144.852 157.609 144.326 157.057 143.679C157.103 143.622 157.957 144.347 159.153 145.006C160.349 145.664 161.401 146.017 161.378 146.089Z" fill="white"/>
<path d="M171.647 157.951C171.023 156.909 170.538 155.786 170.206 154.611C170.83 155.653 171.315 156.776 171.647 157.951Z" fill="white"/>
<path d="M111.016 174.5C110.818 173.811 110.697 173.102 110.654 172.386C110.537 171.678 110.496 170.96 110.533 170.243C110.745 170.935 110.874 171.652 110.918 172.376C111.029 173.078 111.062 173.79 111.016 174.5Z" fill="white"/>
<path d="M142.512 173.679C142.533 172.98 142.635 172.287 142.814 171.613C142.918 170.922 143.1 170.246 143.356 169.599C143.335 170.298 143.232 170.992 143.05 171.665C142.948 172.356 142.768 173.032 142.512 173.679Z" fill="white"/>
<path d="M148.54 79.0609L152.638 71.6933C150.11 67.4941 149.201 62.4736 150.087 57.619C150.974 52.7644 153.593 48.4268 157.43 45.4591C161.266 42.4914 166.043 41.1084 170.82 41.5819C175.597 42.0553 180.029 44.3511 183.245 48.0178C186.461 51.6844 188.228 56.4567 188.198 61.3963C188.169 66.3359 186.345 71.0854 183.085 74.711C179.826 78.3366 175.366 80.576 170.584 80.9889C165.802 81.4018 161.042 79.9583 157.241 76.9422L148.54 79.0609Z" fill="#FAFAFA"/>
<path d="M148.54 79.0608L157.242 77.0185H157.33L157.274 76.9422L157.191 77.0233C158.41 77.9964 159.736 78.8196 161.141 79.476C162.815 80.2474 164.589 80.7681 166.407 81.022C167.414 81.1668 168.432 81.2195 169.448 81.1795C169.972 81.1509 170.501 81.1366 171.039 81.0936L172.661 80.8407C177.496 79.8648 181.789 77.0288 184.664 72.9101C186.261 70.6317 187.367 68.0288 187.909 65.2753C188.461 62.3621 188.383 59.3598 187.682 56.4809C186.953 53.4795 185.542 50.6992 183.565 48.3689L182.772 47.4384C182.513 47.1378 182.207 46.8945 181.929 46.6177C181.65 46.3409 181.372 46.0642 181.057 45.8351L180.13 45.1289C179.827 44.8886 179.508 44.6717 179.175 44.4799L178.201 43.8692L177.181 43.3586C176.848 43.1791 176.504 43.0197 176.152 42.8814C173.417 41.7721 170.475 41.3074 167.543 41.5215C164.778 41.7129 162.087 42.5274 159.662 43.9073C155.288 46.4108 152.02 50.5512 150.533 55.4693C149.938 57.5554 149.656 59.723 149.699 61.8969C149.746 63.783 150.059 65.6523 150.626 67.4464C151.104 68.9374 151.75 70.3659 152.55 71.7028V71.6408C149.982 76.3791 148.725 78.6934 148.526 79.0561C148.73 78.6982 150.019 76.3982 152.647 71.698V71.6694V71.6408C151.867 70.3068 151.241 68.883 150.784 67.3987C150.219 65.6169 149.907 63.7607 149.856 61.8873C149.826 59.7336 150.112 57.5875 150.705 55.5218C152.193 50.6701 155.429 46.5892 159.75 44.1173C162.151 42.7403 164.819 41.9256 167.561 41.7314C170.458 41.5213 173.364 41.9828 176.064 43.0818C176.411 43.2201 176.75 43.3794 177.079 43.559L178.09 44.0648L179.064 44.6851C179.387 44.8759 179.696 45.0896 179.991 45.3245L180.918 46.026C181.229 46.255 181.488 46.5413 181.776 46.799C182.063 47.0567 182.355 47.3144 182.61 47.6102L183.384 48.4835C185.339 50.7914 186.734 53.5437 187.455 56.5143C188.151 59.3566 188.229 62.3222 187.682 65.1989C187.152 67.9231 186.061 70.4988 184.483 72.7526C181.644 76.8304 177.404 79.6437 172.624 80.6212L171.02 80.8789C170.487 80.9218 169.963 80.9409 169.444 80.9695C168.437 81.0118 167.429 80.9639 166.43 80.8264C164.624 80.5859 162.86 80.0813 161.192 79.3281C159.792 78.6841 158.471 77.8738 157.256 76.9136L156.899 76.632L157.172 76.9994L157.205 76.904L148.54 79.0608Z" fill="#263238"/>
<path d="M174.149 60.5035C174.154 60.8789 174.266 61.2446 174.471 61.5548C174.677 61.8651 174.967 62.106 175.304 62.2475C175.642 62.389 176.013 62.4248 176.371 62.3503C176.728 62.2759 177.057 62.0946 177.315 61.8292C177.573 61.5637 177.749 61.2258 177.821 60.8578C177.893 60.4897 177.859 60.108 177.721 59.7602C177.584 59.4124 177.349 59.1141 177.048 58.9025C176.747 58.691 176.391 58.5757 176.027 58.571C175.779 58.5677 175.534 58.6155 175.304 58.7115C175.075 58.8075 174.867 58.9497 174.692 59.1298C174.517 59.3099 174.379 59.5243 174.286 59.7602C174.192 59.9961 174.146 60.2488 174.149 60.5035Z" fill="#263238"/>
<path d="M166.637 60.5034C166.642 60.8798 166.755 61.2465 166.961 61.5572C167.168 61.8679 167.459 62.1089 167.798 62.2497C168.137 62.3905 168.509 62.4249 168.868 62.3486C169.226 62.2723 169.554 62.0886 169.811 61.8207C170.068 61.5529 170.242 61.2128 170.312 60.8432C170.382 60.4736 170.344 60.0911 170.203 59.7437C170.062 59.3963 169.824 59.0996 169.52 58.8909C169.215 58.6822 168.858 58.5708 168.492 58.5708C168.246 58.5708 168.003 58.6209 167.777 58.7183C167.55 58.8157 167.345 58.9585 167.172 59.1383C167 59.318 166.864 59.5313 166.772 59.7656C166.68 59.9999 166.634 60.2507 166.637 60.5034Z" fill="#263238"/>
<path d="M159.161 59.5401C158.982 59.8675 158.901 60.2421 158.927 60.6169C158.954 60.9918 159.088 61.3501 159.312 61.647C159.535 61.944 159.839 62.1663 160.186 62.2861C160.532 62.406 160.904 62.418 161.257 62.3207C161.61 62.2233 161.927 62.021 162.168 61.739C162.409 61.4571 162.565 61.108 162.614 60.7357C162.664 60.3633 162.605 59.9842 162.446 59.6459C162.287 59.3076 162.035 59.0251 161.72 58.8339C161.508 58.7047 161.273 58.6204 161.028 58.586C160.784 58.5516 160.535 58.5677 160.297 58.6335C160.058 58.6992 159.835 58.8133 159.64 58.969C159.445 59.1247 159.282 59.3188 159.161 59.5401Z" fill="#263238"/>
</svg>
