<svg width="33" height="32" viewBox="0 0 33 32" fill="none" xmlns="http://www.w3.org/2000/svg">
<path d="M16.5 1.5C18.4042 1.5 20.2897 1.87505 22.0489 2.60375C23.8081 3.33244 25.4066 4.4005 26.753 5.74695C28.0995 7.0934 29.1676 8.69187 29.8963 10.4511C30.6249 12.2103 31 14.0958 31 16C31 17.9042 30.6249 19.7897 29.8963 21.5489C29.1676 23.3081 28.0995 24.9066 26.753 26.2531C25.4066 27.5995 23.8081 28.6676 22.0489 29.3963C20.2897 30.1249 18.4042 30.5 16.5 30.5C14.5958 30.5 12.7103 30.1249 10.9511 29.3963C9.19186 28.6676 7.5934 27.5995 6.24695 26.253C4.9005 24.9066 3.83244 23.3081 3.10374 21.5489C2.37505 19.7897 2 17.9042 2 16C2 14.0958 2.37506 12.2103 3.10375 10.4511C3.83244 8.69186 4.90051 7.09339 6.24696 5.74695C7.59341 4.4005 9.19188 3.33244 10.9511 2.60374C12.7103 1.87505 14.5958 1.5 16.5 1.5L16.5 1.5Z" stroke="#E2E8F0" stroke-width="3" stroke-linecap="round" stroke-linejoin="round"/>
<path d="M16.5 1.5C19.5621 1.5 22.5456 2.4694 25.0229 4.26925C27.5002 6.06911 29.3441 8.60702 30.2903 11.5193C31.2366 14.4315 31.2366 17.5685 30.2903 20.4807C29.3441 23.393 27.5002 25.9309 25.0229 27.7307" stroke="#95C353" stroke-width="3" stroke-linecap="round" stroke-linejoin="round"/>
<g clip-path="url(#clip0_3031_1023)">
<path d="M10.8516 16.7247L12.3834 15.2154L14.9916 14.7532L14.7337 16.1182L11.2078 17.2019L10.98 17.1035L10.8516 16.7247Z" fill="#CA2C31"/>
<path d="M12.6514 15.6025L10.9883 17.1138L12.2117 17.71L14.0689 16.7622V16.315L14.4486 15.2913L12.6514 15.6025ZM16.587 18.2641L15.7836 18.6128L15.0252 20.2206C15.0252 20.2206 15.6927 21.6991 15.7227 21.6991C15.7527 21.6991 16.1323 21.7291 16.1323 21.7291L17.4823 20.2197L17.8236 17.6416L16.587 18.2641Z" fill="#A02422"/>
<path d="M15.7975 19.4538C15.7975 19.4538 16.2447 19.3629 16.5634 19.211C16.8822 19.0592 17.2759 18.8323 17.2759 18.8323L17.1316 20.0913L15.7206 21.6973C15.7206 21.6973 15.6653 21.6288 15.4309 21.1188C15.2444 20.712 15.1797 20.5667 15.1797 20.5667L15.7975 19.4538Z" fill="#CA2C31"/>
<path d="M13.4601 17.5618C13.4601 17.5618 12.922 17.5168 12.3323 18.2621C11.7942 18.9427 11.542 20.0509 11.4445 20.3359C11.347 20.6209 11.1136 20.679 11.1914 20.8093C11.2692 20.9396 11.6058 20.9321 12.0211 20.8806C12.4364 20.829 12.7926 20.6987 12.7926 20.6987C12.7926 20.6987 12.7748 20.7437 12.7148 20.8412C12.6933 20.8759 12.6183 20.9256 12.6239 20.9771C12.637 21.0999 13.6889 21.1027 14.5289 20.2384C15.4364 19.3056 14.9958 18.5406 14.9958 18.5406L13.4601 17.5618Z" fill="#F7D74D"/>
<path d="M13.6218 17.9958C13.6218 17.9958 13.0415 18.0268 12.5615 18.7721C12.0815 19.5174 11.8584 20.3808 11.9043 20.439C11.9493 20.4971 12.8437 20.1737 13.0584 20.2383C13.2056 20.2833 13.1296 20.4324 13.169 20.4718C13.2018 20.5046 13.59 20.5599 14.2181 19.8793C14.8471 19.1987 14.6981 18.2424 14.6981 18.2424L13.6218 17.9958Z" fill="#FBF0B4"/>
<path d="M13.9096 16.9788C13.9096 16.9788 13.618 17.2384 13.5139 17.3875C13.4099 17.5366 13.4099 17.5497 13.4164 17.5947C13.423 17.6397 13.5308 18.1338 13.9799 18.5669C14.5311 19.0984 15.0233 19.1697 15.0946 19.1697C15.1658 19.1697 15.6392 18.6381 15.6392 18.6381L13.9096 16.9788Z" fill="#858585"/>
<path d="M15.1953 18.5537C15.1953 18.5537 15.6678 18.864 16.46 18.5978C17.5428 18.234 18.3369 17.4203 19.3203 16.3928C20.2691 15.4009 21.065 14.17 21.065 14.17L20.5072 12.3015L15.1953 18.5537Z" fill="#437687"/>
<path d="M16.875 17.531L17.0053 17.126L17.3316 17.1719C17.3316 17.1719 17.58 17.2891 17.7628 17.3744C17.9456 17.4597 18.1809 17.5244 18.1809 17.5244L17.7169 17.9163C17.7169 17.9163 17.4638 17.8207 17.2791 17.74C17.0709 17.6491 16.875 17.531 16.875 17.531Z" fill="#3F545F"/>
<path d="M18.4033 11.5132C18.4033 11.5132 17.5015 12.0363 16.2087 13.2597C15.0433 14.3622 14.1799 15.3597 13.9708 16.2082C13.7965 16.9188 13.8893 17.3501 14.2858 17.816C14.7049 18.3091 15.1962 18.5538 15.1962 18.5538C15.1962 18.5538 15.5655 18.5594 17.1068 17.3735C19.0296 15.8932 20.5699 13.4144 20.5699 13.4144L18.4033 11.5132Z" fill="#8DAFBF"/>
<path d="M20.2672 13.9225C20.2672 13.9225 19.4825 13.5879 18.9229 12.8069C18.3669 12.0316 18.411 11.5075 18.411 11.5075C18.411 11.5075 18.876 11.1429 19.9213 10.7257C20.6244 10.4454 21.5816 10.3019 21.8966 10.5354C22.2116 10.7688 21.681 11.9397 21.681 11.9397L20.7144 13.811L20.2672 13.9225Z" fill="#D83F22"/>
<path d="M16.8903 17.5374C16.8903 17.5374 16.2125 17.1915 15.7812 16.6993C14.9656 15.7702 14.7969 14.7502 14.7969 14.7502L15.2066 14.2693C15.2066 14.2693 15.3088 15.353 16.1834 16.2896C16.7534 16.8999 17.3487 17.1793 17.3487 17.1793C17.3487 17.1793 17.2297 17.2796 17.1022 17.3771C17.0206 17.4399 16.8903 17.5374 16.8903 17.5374Z" fill="#6896A5"/>
<path d="M21.0653 14.1699C21.0653 14.1699 21.4722 13.6796 21.8575 12.5743C22.3956 11.033 21.9269 10.5662 21.9269 10.5662C21.9269 10.5662 21.7684 11.2993 21.2181 12.3183C20.7766 13.1349 20.2422 13.9121 20.2422 13.9121C20.2422 13.9121 20.5366 14.0443 20.6959 14.0902C20.8966 14.1483 21.0653 14.1699 21.0653 14.1699Z" fill="#A02422"/>
<path d="M14.2307 16.5306C14.3525 16.6469 14.5372 16.525 14.6582 16.24C14.78 15.955 14.7782 15.7956 14.6844 15.7281C14.5682 15.6438 14.3732 15.8285 14.2879 15.9925C14.1941 16.1744 14.1388 16.4425 14.2307 16.5306ZM18.4625 11.8872C18.4625 11.8872 17.7491 12.4 16.9879 13.0975C16.2894 13.7378 15.8263 14.2385 15.7625 14.3547C15.695 14.4794 15.6941 14.6556 15.7466 14.7456C15.7991 14.8356 15.9154 14.8825 16.0213 14.8038C16.1272 14.7241 16.8819 13.8897 17.5635 13.2935C18.1869 12.7478 18.6679 12.4019 18.6679 12.4019C18.6679 12.4019 18.8629 12.0569 18.831 11.9781C18.7991 11.8985 18.4625 11.8872 18.4625 11.8872Z" fill="#B3E1EE"/>
<path d="M18.4648 11.8872C18.4648 11.8872 18.9917 11.4832 19.5655 11.1991C20.0989 10.9347 20.6295 10.7144 20.7252 10.9057C20.8161 11.0876 20.2217 11.3351 19.6986 11.6688C19.1755 12.0026 18.672 12.401 18.672 12.401C18.672 12.401 18.5952 12.2604 18.5455 12.1301C18.514 12.0507 18.4871 11.9696 18.4648 11.8872Z" fill="#ED6A65"/>
<path d="M18.8975 13.6798C18.3753 13.1989 17.6487 13.3282 17.2906 13.7557C16.9231 14.1964 16.9503 14.8695 17.3843 15.2745C17.779 15.642 18.5131 15.7254 18.9556 15.2098C19.3493 14.7523 19.325 14.0726 18.8975 13.6798Z" fill="#E1E1E1"/>
<path d="M17.5619 13.9253C17.2515 14.23 17.2684 14.8337 17.6378 15.1093C17.9603 15.3503 18.4178 15.3381 18.7047 15.0447C18.9915 14.7512 18.9915 14.2178 18.7225 13.9422C18.4131 13.6262 17.9172 13.5765 17.5619 13.9253Z" fill="#3F545F"/>
<path d="M15.189 17.2085C15.189 17.2085 15.7693 16.6198 15.833 16.6835C15.8968 16.7473 15.8884 17.1045 15.6109 17.502C15.3324 17.8995 14.7202 18.6073 14.2355 19.0845C13.7574 19.5542 13.0834 20.0914 13.0196 20.082C12.9699 20.0745 12.7684 19.9742 12.6877 19.8767C12.609 19.7801 12.8443 19.3235 12.939 19.1726C13.0346 19.0217 15.189 17.2085 15.189 17.2085Z" fill="#A02524"/>
<path d="M12.4885 19.5485C12.481 19.6835 12.6872 19.8803 12.6872 19.8803L15.8297 16.6844C15.8297 16.6844 15.6825 16.5185 15.2494 16.7875C14.8125 17.0594 14.43 17.3856 13.8657 17.9322C13.0791 18.6953 12.496 19.4135 12.4885 19.5485Z" fill="#CA2C31"/>
<path d="M12.2859 13.4641C12.1818 13.5682 12.1772 13.7351 12.2934 13.8307C12.3965 13.916 12.5643 13.8607 12.6272 13.7838C12.69 13.7069 12.6825 13.5401 12.599 13.4576C12.5156 13.3741 12.3497 13.4013 12.2859 13.4641Z" fill="white"/>
<path opacity="0.5" d="M14.3452 13.3423C14.2665 13.4295 14.2918 13.5588 14.3649 13.6066C14.438 13.6545 14.5477 13.6498 14.6011 13.5841C14.649 13.5251 14.6546 13.407 14.5815 13.3338C14.5177 13.271 14.3958 13.286 14.3452 13.3423Z" fill="white"/>
<path d="M15.7089 11.1147C15.7089 11.1147 15.8232 10.7884 15.8907 10.7847C15.9592 10.7809 16.0576 11.1109 16.0576 11.1109C16.0576 11.1109 16.396 11.1147 16.4185 11.1644C16.4476 11.2281 16.202 11.4419 16.202 11.4419C16.202 11.4419 16.2817 11.7606 16.2442 11.7991C16.202 11.8413 15.9104 11.6734 15.9104 11.6734C15.9104 11.6734 15.6104 11.8825 15.5457 11.8253C15.4895 11.7756 15.6067 11.4381 15.6067 11.4381C15.6067 11.4381 15.3254 11.2328 15.3404 11.1756C15.362 11.095 15.7089 11.1147 15.7089 11.1147ZM19.5957 18.9372C19.7092 19 19.8517 18.9644 19.9042 18.8435C19.952 18.7356 19.8639 18.6072 19.7842 18.5725C19.7045 18.5378 19.5648 18.5838 19.5142 18.6747C19.4645 18.7647 19.5273 18.8997 19.5957 18.9372ZM21.2064 16.1725C21.1417 16.0722 21.002 16.0394 20.911 16.12C20.8229 16.1988 20.8445 16.3225 20.8942 16.3853C20.9439 16.4481 21.077 16.4716 21.1576 16.42C21.2382 16.3684 21.2457 16.2325 21.2064 16.1725Z" fill="white"/>
</g>
<defs>
<clipPath id="clip0_3031_1023">
<rect width="12" height="12" fill="white" transform="translate(10.5 10)"/>
</clipPath>
</defs>
</svg>
