<svg width="25" height="24" viewBox="0 0 25 24" fill="none" xmlns="http://www.w3.org/2000/svg">
<g clip-path="url(#clip0_3031_1054)">
<mask id="mask0_3031_1054" style="mask-type:luminance" maskUnits="userSpaceOnUse" x="0" y="0" width="25" height="24">
<path d="M12.5 24C19.1274 24 24.5 18.6274 24.5 12C24.5 5.37258 19.1274 0 12.5 0C5.87258 0 0.5 5.37258 0.5 12C0.5 18.6274 5.87258 24 12.5 24Z" fill="white"/>
</mask>
<g mask="url(#mask0_3031_1054)">
<path d="M12.5 0H24.5V3L23 4.5L24.5 6V9L23 10.5L24.5 12V15L23 16.5L24.5 18V21L12.5 22.5L0.5 21V18L2 16.5L0.5 15V12L12.5 0Z" fill="#EEEEEE"/>
<path d="M11 3H24.5V6H11V3ZM11 9H24.5V12H12.5L11 9ZM0.5 15H24.5V18H0.5V15ZM0.5 21H24.5V24H0.5V21Z" fill="#D80027"/>
<path d="M0.5 0H12.5V12H0.5V0Z" fill="#0052B4"/>
<path d="M9.26562 11.3906L11.9375 9.46875H8.65625L11.3281 11.3906L10.2969 8.25L9.26562 11.3906ZM5.46875 11.3906L8.14062 9.46875H4.85938L7.53125 11.3906L6.5 8.25L5.46875 11.3906ZM1.67188 11.3906L4.34375 9.46875H1.0625L3.73438 11.3906L2.70312 8.25L1.67188 11.3906ZM9.26562 7.59375L11.9375 5.67188H8.65625L11.3281 7.59375L10.2969 4.45312L9.26562 7.59375ZM5.46875 7.59375L8.14062 5.67188H4.85938L7.53125 7.59375L6.5 4.45312L5.46875 7.59375ZM1.67188 7.59375L4.34375 5.67188H1.0625L3.73438 7.59375L2.70312 4.45312L1.67188 7.59375ZM9.26562 3.75L11.9375 1.82812H8.65625L11.3281 3.75L10.2969 0.609375L9.26562 3.75ZM5.46875 3.75L8.14062 1.82812H4.85938L7.53125 3.75L6.5 0.609375L5.46875 3.75ZM1.67188 3.75L4.34375 1.82812H1.0625L3.73438 3.75L2.70312 0.609375L1.67188 3.75Z" fill="#EEEEEE"/>
</g>
</g>
<defs>
<clipPath id="clip0_3031_1054">
<rect width="24" height="24" fill="white" transform="translate(0.5)"/>
</clipPath>
</defs>
</svg>
