<svg width="33" height="32" viewBox="0 0 33 32" fill="none" xmlns="http://www.w3.org/2000/svg">
<path fill-rule="evenodd" clip-rule="evenodd" d="M17.8328 4.00008C17.8328 3.64646 17.6923 3.30732 17.4423 3.05727C17.1922 2.80722 16.8531 2.66675 16.4995 2.66675C16.1459 2.66675 15.8067 2.80722 15.5567 3.05727C15.3066 3.30732 15.1662 3.64646 15.1662 4.00008V5.00008H14.4235C12.9942 4.99999 11.6186 5.54461 10.5767 6.52306C9.53485 7.50152 8.90503 8.84026 8.81549 10.2667L8.52082 14.9787C8.40691 16.775 7.80381 18.5059 6.77682 19.9841C6.56433 20.2895 6.4345 20.6447 6.39994 21.0152C6.36539 21.3856 6.42729 21.7587 6.57964 22.0982C6.73198 22.4376 6.96957 22.7319 7.26931 22.9523C7.56905 23.1727 7.92073 23.3118 8.29015 23.3561L12.8328 23.9001V25.3334C12.8328 26.3059 13.2191 27.2385 13.9068 27.9261C14.5944 28.6138 15.527 29.0001 16.4995 29.0001C17.4719 29.0001 18.4046 28.6138 19.0922 27.9261C19.7798 27.2385 20.1662 26.3059 20.1662 25.3334V23.9001L24.7088 23.3547C25.078 23.3104 25.4295 23.1712 25.729 22.9509C26.0286 22.7305 26.266 22.4365 26.4184 22.0972C26.5707 21.758 26.6326 21.3851 26.5983 21.0148C26.5639 20.6446 26.4343 20.2895 26.2222 19.9841C25.1952 18.5059 24.5921 16.775 24.4782 14.9787L24.1835 10.2681C24.0943 8.84136 23.4646 7.50229 22.4227 6.52355C21.3808 5.54481 20.005 5.00001 18.5755 5.00008H17.8328V4.00008ZM14.4235 7.00008C13.5029 6.99997 12.6169 7.35071 11.9459 7.98089C11.2748 8.61107 10.8692 9.47332 10.8115 10.3921L10.5182 15.1041C10.3811 17.2651 9.6553 19.3474 8.41949 21.1254C8.40411 21.1475 8.39471 21.1732 8.3922 21.2C8.38969 21.2268 8.39415 21.2538 8.40516 21.2783C8.41616 21.3029 8.43334 21.3242 8.455 21.3401C8.47667 21.3561 8.5021 21.3662 8.52882 21.3694L13.5115 21.9681C15.4968 22.2054 17.5022 22.2054 19.4875 21.9681L24.4702 21.3694C24.4969 21.3662 24.5223 21.3561 24.544 21.3401C24.5656 21.3242 24.5828 21.3029 24.5938 21.2783C24.6048 21.2538 24.6093 21.2268 24.6068 21.2C24.6043 21.1732 24.5949 21.1475 24.5795 21.1254C23.3441 19.3472 22.6189 17.2649 22.4822 15.1041L22.1875 10.3921C22.1298 9.47332 21.7242 8.61107 21.0531 7.98089C20.3821 7.35071 19.4961 6.99997 18.5755 7.00008H14.4235ZM16.4995 27.0001C15.5795 27.0001 14.8328 26.2534 14.8328 25.3334V24.3334H18.1662V25.3334C18.1662 26.2534 17.4195 27.0001 16.4995 27.0001Z" fill="#A0AEC0"/>
<path d="M14.4235 7.00008C13.5029 6.99997 12.6169 7.35071 11.9459 7.98089C11.2748 8.61107 10.8692 9.47332 10.8115 10.3921L10.5182 15.1041C10.3811 17.2651 9.6553 19.3474 8.41949 21.1254C8.40411 21.1475 8.39471 21.1732 8.3922 21.2C8.38969 21.2268 8.39415 21.2538 8.40516 21.2783C8.41616 21.3029 8.43334 21.3242 8.455 21.3401C8.47667 21.3561 8.5021 21.3662 8.52882 21.3694L13.5115 21.9681C15.4968 22.2054 17.5022 22.2054 19.4875 21.9681L24.4702 21.3694C24.4969 21.3662 24.5223 21.3561 24.544 21.3401C24.5656 21.3242 24.5828 21.3029 24.5938 21.2783C24.6048 21.2538 24.6093 21.2268 24.6068 21.2C24.6043 21.1732 24.5949 21.1475 24.5795 21.1254C23.3441 19.3472 22.6189 17.2649 22.4822 15.1041L22.1875 10.3921C22.1298 9.47332 21.7242 8.61107 21.0531 7.98089C20.3821 7.35071 19.4961 6.99997 18.5755 7.00008H14.4235Z" fill="#A0AEC0"/>
</svg>
