<svg width="301" height="316" viewBox="0 0 301 316" fill="none" xmlns="http://www.w3.org/2000/svg">
<path d="M69.714 2.6543H9.93347V65.7457H69.714V2.6543Z" fill="#E0E0E0"/>
<path d="M65.6657 2.6543H5.88519V65.7457H65.6657V2.6543Z" fill="#EBEBEB"/>
<path d="M57.6325 11.1367H13.9254V57.2631H57.6325V11.1367Z" fill="#FAFAFA"/>
<path d="M13.9254 57.5698C13.6038 58.0347 13.2383 58.4668 12.8341 58.86C12.13 59.5728 11.1444 60.6064 10.0179 61.7113C8.89144 62.8162 7.90577 63.7927 7.20172 64.4841C6.82092 64.8842 6.40369 65.247 5.95557 65.5676C6.26454 65.1012 6.62085 64.6688 7.01867 64.2774C7.72272 63.5646 8.70838 62.5239 9.83485 61.4262C10.9613 60.3284 11.947 59.3447 12.6862 58.6462C13.0592 58.2426 13.4747 57.8816 13.9254 57.5698Z" fill="#E0E0E0"/>
<path d="M57.6325 57.4341C58.0794 57.7615 58.4943 58.1315 58.8716 58.539C59.5757 59.2518 60.5965 60.2497 61.6878 61.3902C62.7791 62.5307 63.7366 63.5287 64.4265 64.2415C64.8237 64.6251 65.1822 65.0477 65.4967 65.5032C65.0463 65.1829 64.6309 64.8149 64.2576 64.4054C63.5535 63.6926 62.5327 62.6947 61.4414 61.5542C60.3501 60.4137 59.3926 59.4157 58.7027 58.7029C58.3028 58.3193 57.9441 57.894 57.6325 57.4341Z" fill="#E0E0E0"/>
<path d="M57.5128 11.2581C57.8335 10.8034 58.1992 10.3831 58.6041 10.0035C59.3081 9.29069 60.2868 8.2571 61.3851 7.15224C62.4834 6.04737 63.4972 5.07081 64.2365 4.37938C64.6186 3.978 65.0383 3.61514 65.4897 3.2959C65.1675 3.74723 64.802 4.16508 64.3984 4.54333C63.6943 5.25615 62.7157 6.29686 61.5822 7.3946C60.4487 8.49233 59.4701 9.47602 58.7238 10.1746C58.3573 10.5762 57.9516 10.9392 57.5128 11.2581Z" fill="#E0E0E0"/>
<path d="M13.8057 11.3723C13.3588 11.0449 12.9439 10.6749 12.5666 10.2674C11.8625 9.55463 10.8346 8.55668 9.75041 7.41618C8.66618 6.27567 7.6946 5.27773 7.00464 4.56491C6.60819 4.18264 6.25192 3.75982 5.94153 3.30322C6.38674 3.62739 6.79942 3.99507 7.17361 4.40096C7.87765 5.11378 8.90556 6.11172 9.98979 7.25223C11.074 8.39273 12.0456 9.39068 12.7356 10.1035C13.1355 10.4871 13.4942 10.9124 13.8057 11.3723Z" fill="#E0E0E0"/>
<path d="M57.5128 57.2634C57.5128 57.2634 57.5128 57.185 57.5128 57.0424C57.5128 56.8998 57.5128 56.6717 57.5128 56.4009C57.5128 55.8235 57.5128 54.9752 57.5128 53.9131C57.5128 51.7319 57.5128 48.5527 57.5128 44.5111C57.5128 36.4349 57.4706 24.9229 57.4354 11.137L57.5832 11.2795H13.9958L14.1577 11.1156C14.1577 28.045 14.1577 43.9052 14.1577 57.242L14.0169 57.0994L45.5863 57.1707L54.4432 57.2135H56.7876H54.4784H45.6426L13.9606 57.2848H13.8198V57.1422C13.8198 43.784 13.8198 27.9167 13.8198 11.0158V10.8447H13.9887H57.5762H57.717V10.9944C57.717 24.8159 57.6607 36.3636 57.6466 44.4968C57.6466 48.5242 57.6466 51.6891 57.6043 53.8632C57.6043 54.9325 57.6043 55.7593 57.6043 56.3224C57.6043 56.5933 57.6043 56.8 57.6043 56.9497C57.6043 57.0994 57.5128 57.2634 57.5128 57.2634Z" fill="#E0E0E0"/>
<path d="M25.4576 30.4043C25.4576 30.4043 24.5212 41.8094 36.7223 41.8094C36.7364 35.729 31.7729 30.9175 25.4576 30.4043Z" fill="#EBEBEB"/>
<path d="M47.8111 30.4113C47.8111 30.4113 36.5464 29.4633 36.5464 41.8164C42.5519 41.8378 47.3042 36.8053 47.8111 30.4113Z" fill="#EBEBEB"/>
<path d="M36.1943 24.1602C36.1943 24.1602 26.9784 32.5358 36.7012 41.8238C41.2212 36.9766 40.8129 29.3708 36.1943 24.1602Z" fill="#E0E0E0"/>
<path d="M223.625 233.686C219.905 231.331 215.703 229.868 211.34 229.409C209.333 229.202 207.115 229.259 205.524 230.492C205.34 230.602 205.187 230.76 205.082 230.949C204.977 231.138 204.923 231.352 204.926 231.569C205.026 231.867 205.228 232.12 205.496 232.281C210.495 236.138 218.056 236.63 223.625 233.671" fill="#E0E0E0"/>
<path d="M223.308 233.329C220.463 231.216 217.808 228.852 215.374 226.265C212.93 223.66 211.213 220.445 210.396 216.949C210.185 215.886 210.122 214.675 210.791 213.833C217.127 218.823 222.055 225.303 223.308 233.329Z" fill="#E0E0E0"/>
<path d="M223.562 233.636C222.975 230.14 223.022 226.564 223.703 223.086C224.498 219.643 226.35 216.35 229.258 214.382C230.349 216.97 229.877 219.949 229.11 222.651C227.917 226.839 226.057 230.802 223.604 234.384" fill="#E0E0E0"/>
<path d="M229.757 244.905C225.998 245.369 222.717 247.379 219.901 249.952C217.08 252.558 215.114 255.976 214.268 259.746C217.965 259.518 221.098 256.895 223.365 253.93C225.632 250.964 227.216 247.728 229.701 244.962" fill="#E0E0E0"/>
<path d="M231.109 246.68C229.629 242.871 229.111 238.748 229.602 234.685C230.094 230.622 231.58 226.748 233.925 223.414C236.073 231.133 235.284 239.858 231.109 246.68Z" fill="#E0E0E0"/>
<path d="M239.297 256.56C235.857 256.343 232.429 257.156 229.442 258.897C226.455 260.639 224.04 263.232 222.499 266.354C222.288 266.775 222.105 267.309 222.386 267.687C222.531 267.829 222.708 267.933 222.902 267.991C223.096 268.048 223.301 268.056 223.499 268.015C226.808 267.801 229.743 265.784 232.165 263.488C234.587 261.193 236.699 258.534 239.375 256.553" fill="#E0E0E0"/>
<path d="M239.037 256.025C237.274 250.275 237.167 244.135 238.727 238.326C239.339 236.045 240.374 233.65 242.458 232.58C242.541 232.524 242.635 232.486 242.733 232.468C242.831 232.451 242.932 232.455 243.029 232.481C243.196 232.57 243.325 232.72 243.388 232.901C244.085 234.495 244.388 236.237 244.268 237.976C244.143 239.708 243.879 241.427 243.479 243.116C242.825 246.259 242.48 249.638 240.776 252.347C240.372 252.997 240.01 253.674 239.692 254.371C239.368 255.084 239.368 255.305 239.072 255.854" fill="#E0E0E0"/>
<path d="M260.721 259.297C259.116 253.102 260.82 245.604 264.671 240.528C264.96 240.158 265.333 239.759 265.798 239.816C266.502 239.88 266.692 240.842 266.656 241.562C266.368 247.926 264.311 254.078 260.721 259.311" fill="#E0E0E0"/>
<path d="M262.679 260.644C270.106 262.605 278.625 260.701 284.8 256.089C281.099 254.211 276.87 253.687 272.831 254.607C268.832 255.533 265.178 257.344 262.686 260.644" fill="#E0E0E0"/>
<path d="M264.326 256.524C268.487 249.66 276.457 245.183 284.406 244.777C283.49 248.049 280.829 250.586 277.837 252.126C274.845 253.666 271.5 254.329 268.198 254.977C266.917 255.227 265.157 255.505 264.326 256.524Z" fill="#E0E0E0"/>
<path d="M261.137 236.537C262.263 232.63 263.397 228.696 263.707 224.633C264.016 220.57 263.439 216.343 261.362 212.857C257.476 220.47 257.089 229.359 261.017 236.943" fill="#E0E0E0"/>
<path d="M274.218 229.843C278.759 221.482 288.024 214.81 297.402 213.869C293.783 222.993 283.92 230.036 274.218 229.843Z" fill="#E0E0E0"/>
<path d="M271.359 231.483C278.132 232.523 283.906 236.907 290.235 239.559C291.56 240.21 293.032 240.495 294.501 240.386C295.187 240.382 295.854 240.165 296.413 239.764C296.972 239.363 297.396 238.798 297.627 238.145C297.858 237.491 297.884 236.782 297.703 236.113C297.522 235.444 297.141 234.848 296.614 234.405C295.717 233.568 294.663 232.921 293.516 232.502C286.616 229.594 279.224 229.522 271.958 231.283" fill="#E0E0E0"/>
<path d="M267.438 236.294C268.973 236.736 269.494 237.542 270.712 238.589C274.853 242.153 279.752 244.7 285.025 246.031C285.574 246.167 286.285 246.224 286.56 245.725C286.834 245.226 286.496 244.755 286.187 244.37C283.887 241.638 280.903 239.585 277.548 238.425C274.239 237.185 271.381 235.681 267.438 236.002" fill="#E0E0E0"/>
<path d="M263.01 207.233C265.79 209.823 269.075 211.795 272.653 213.022C276.231 214.25 280.023 214.706 283.786 214.361C284.131 214.368 284.467 214.246 284.729 214.019C285.25 213.441 284.624 212.55 284.025 212.073C277.914 207.254 270.522 205.251 263.017 207.204" fill="#E0E0E0"/>
<path d="M268.255 205.294C271.932 202.553 276.197 200.731 280.703 199.978C285.208 199.225 289.825 199.561 294.178 200.96C290.911 204.218 286.384 205.95 281.822 206.449C277.267 206.871 272.675 206.48 268.255 205.294Z" fill="#E0E0E0"/>
<path d="M266.171 191.943C265.572 185.77 265.96 180.901 265.537 174.7C265.537 174.201 265.403 173.609 264.946 173.431C264.305 173.181 263.777 173.973 263.538 174.628C262.65 177.503 262.422 180.545 262.873 183.522C263.323 186.5 264.439 189.333 266.136 191.807" fill="#E0E0E0"/>
<path d="M265.734 192.62C269.867 190.032 272.965 186.661 275.83 182.69C277.823 179.925 279.505 176.617 279.055 173.224C276.239 173.167 273.591 174.728 271.768 176.888C270.03 179.124 268.767 181.698 268.058 184.451C267.248 187.167 266.685 189.954 265.734 192.62Z" fill="#E0E0E0"/>
<path d="M275.654 189.833C284.742 186.425 293.156 181.402 300.5 174.999C297.536 173.788 294.164 174.515 291.171 175.712C284.391 178.485 278.851 183.161 275.527 189.748" fill="#E0E0E0"/>
<path d="M268.522 195.999C273.113 196.505 277.773 196.84 282.322 196.07C286.87 195.3 291.024 193.518 295.199 191.736C295.571 191.621 295.886 191.366 296.079 191.023C296.143 190.827 296.148 190.616 296.091 190.417C296.035 190.219 295.92 190.042 295.762 189.911C295.441 189.652 295.065 189.474 294.663 189.391C290.122 188.101 285.215 188.678 280.744 190.232C276.485 191.695 272.388 193.606 268.522 195.935" fill="#E0E0E0"/>
<path d="M242.332 207.447C239.206 201.031 239.41 193.59 242.106 186.996C244.014 189.933 244.219 193.668 243.895 197.168C243.571 200.668 242.487 204.253 242.43 207.768" fill="#E0E0E0"/>
<path d="M229.828 201.06C225.91 201.009 222.025 201.785 218.421 203.34C214.817 204.895 211.573 207.195 208.897 210.091C212.797 210.712 216.81 209.692 220.358 207.953C223.907 206.214 227.061 203.74 230.215 201.295" fill="#E0E0E0"/>
<path d="M221.429 198.215C217.606 197.902 213.924 197.424 210.248 198.565C206.573 199.705 203.208 202.293 201.737 205.878C205.343 206.171 208.961 205.48 212.213 203.875C215.445 202.27 218.529 200.376 221.429 198.215Z" fill="#E0E0E0"/>
<path d="M233.869 198.344C230.433 196.063 226.899 193.746 222.9 192.798C218.901 191.85 214.254 192.549 211.459 195.607C214.705 197.531 218.634 197.745 222.393 197.745C226.153 197.745 230.757 197.695 234.299 198.964" fill="#E0E0E0"/>
<path d="M233.89 198.529C228.011 192.684 225.787 182.184 228.152 174.201C232.791 181.392 234.819 189.991 233.89 198.529Z" fill="#E0E0E0"/>
<path d="M250.055 181.97C251.168 179.361 251.942 176.624 252.942 173.965C253.847 171.27 255.239 168.769 257.046 166.588C258.887 164.397 261.504 163.025 264.333 162.767C263.427 166.793 261.703 170.583 259.27 173.897C256.837 177.211 253.749 179.975 250.203 182.013" fill="#E0E0E0"/>
<path d="M247.133 185.42C245.296 182.868 243.177 179.397 240.691 177.487C238.206 175.576 234.96 174.422 231.926 175.156C233.499 177.945 235.692 180.325 238.332 182.107C240.972 183.889 243.985 185.023 247.133 185.42Z" fill="#E0E0E0"/>
<path d="M247.718 182.177C246.514 179.084 245.303 175.954 244.817 172.668C244.331 169.382 244.627 165.868 246.288 163.002C249.513 169.175 250.555 175.833 247.88 182.248" fill="#E0E0E0"/>
<path d="M250.083 163.01C251.914 156.887 257.448 152.375 263.425 150.307C264.168 150.003 264.971 149.881 265.769 149.951C266.166 149.998 266.541 150.161 266.848 150.421C267.154 150.68 267.379 151.025 267.494 151.412C267.713 152.453 266.861 153.387 266.086 154.078C261.412 158.117 255.977 161.155 250.111 163.01" fill="#E0E0E0"/>
<path d="M250.154 157.999C250.386 154.057 250.625 150.051 251.893 146.308C253.16 142.566 255.61 139.059 259.166 137.427C259.771 141.411 258.032 145.375 255.934 148.832C253.836 152.289 251.315 155.497 250.055 159.324" fill="#E0E0E0"/>
<path d="M250.055 160.722C248.549 156.259 248.387 150.593 245.753 146.701C243.909 143.985 240.952 142.131 239.361 139.259C238.401 142.017 238.535 145.045 239.734 147.706C240.933 150.339 242.585 152.736 244.613 154.784C246.57 156.922 248.239 158.483 250.055 160.722Z" fill="#E0E0E0"/>
<path d="M250.083 292.115C249.971 292.115 249.865 262.348 249.858 225.645C249.851 188.942 249.935 159.161 250.055 159.161C250.175 159.161 250.273 188.921 250.28 225.645C250.287 262.369 250.203 292.115 250.083 292.115Z" fill="#E0E0E0"/>
<path d="M275.774 202.956C275.419 203.131 275.049 203.272 274.669 203.377L271.627 204.417C269.064 205.301 265.537 206.556 261.714 208.167C257.891 209.778 254.357 211.146 252.322 212.928C251.512 213.617 250.867 214.482 250.435 215.459C250.147 216.172 250.097 216.585 250.055 216.578C250.038 216.474 250.038 216.368 250.055 216.264C250.101 215.968 250.174 215.677 250.273 215.395C250.657 214.357 251.288 213.431 252.111 212.7C253.339 211.65 254.712 210.788 256.187 210.141C257.814 209.371 259.623 208.566 261.538 207.768C265.375 206.178 268.931 204.916 271.521 204.125C272.817 203.719 273.873 203.412 274.612 203.213C274.991 203.09 275.38 203.004 275.774 202.956Z" fill="#E0E0E0"/>
<path d="M284.194 182.013C284.194 182.013 284.103 182.141 283.885 182.348L282.941 183.246L279.421 186.483L267.699 197.054C263.122 201.174 259.173 205.116 256.434 208.081C255.061 209.564 253.977 210.79 253.237 211.645C252.9 212.044 252.618 212.358 252.386 212.629C252.153 212.9 252.083 212.971 252.069 212.957C252.142 212.823 252.227 212.697 252.322 212.579C252.498 212.336 252.759 211.98 253.111 211.538C253.815 210.647 254.864 209.4 256.209 207.874C259.746 203.961 263.488 200.242 267.417 196.733C272.007 192.613 276.189 188.892 279.224 186.254L282.836 183.118L283.828 182.284C283.94 182.18 284.062 182.089 284.194 182.013Z" fill="#E0E0E0"/>
<path d="M262.763 201.245C262.643 201.188 263.594 198.957 264.551 196.127C265.509 193.297 265.96 190.916 266.086 190.938C266.213 190.959 265.924 193.404 264.953 196.27C264.547 197.482 264.077 198.672 263.545 199.834C263.352 200.34 263.089 200.815 262.763 201.245Z" fill="#E0E0E0"/>
<path d="M250.111 219.244C249.849 218.994 249.613 218.717 249.407 218.417L247.598 216.072C246.084 214.083 243.986 211.346 241.635 208.345C239.283 205.344 237.122 202.642 235.559 200.711L233.721 198.408C233.48 198.137 233.268 197.841 233.088 197.524C233.366 197.757 233.621 198.017 233.848 198.301C234.32 198.815 234.989 199.577 235.798 200.525C237.425 202.429 239.628 205.087 241.98 208.095C244.331 211.104 246.401 213.869 247.859 215.901C248.563 216.92 249.161 217.747 249.555 218.332C249.766 218.619 249.952 218.924 250.111 219.244Z" fill="#E0E0E0"/>
<path d="M244.479 211.937C244.409 212.016 242.909 210.205 242.121 207.468C241.677 206.008 241.495 204.48 241.585 202.956H241.768C241.691 203.298 241.628 203.483 241.592 203.476C241.557 203.469 241.557 203.277 241.592 202.927H241.783C241.871 204.412 242.123 205.883 242.536 207.311C243.289 209.977 244.592 211.866 244.479 211.937Z" fill="#E0E0E0"/>
<path d="M237.242 202.678C236.735 202.286 236.182 201.96 235.594 201.709C234.111 201.26 232.552 201.134 231.018 201.338C229.465 201.459 227.925 201.712 226.413 202.094C225.794 202.294 225.161 202.447 224.519 202.55C225.085 202.211 225.697 201.958 226.336 201.801C227.848 201.325 229.41 201.027 230.99 200.91C232.58 200.696 234.198 200.872 235.707 201.424C236.348 201.646 236.892 202.09 237.242 202.678Z" fill="#E0E0E0"/>
<path d="M235.481 200.432C235.481 200.496 234.524 200.04 232.961 199.499C228.872 198.08 224.492 197.744 220.239 198.522C218.612 198.814 217.627 199.121 217.606 199.049C217.812 198.918 218.038 198.822 218.275 198.764C218.899 198.543 219.536 198.362 220.182 198.223C224.478 197.267 228.956 197.612 233.059 199.213C233.676 199.452 234.278 199.729 234.862 200.04C235.277 200.268 235.495 200.404 235.481 200.432Z" fill="#E0E0E0"/>
<path d="M250.055 190.938C249.942 190.938 249.119 188.086 248.218 184.465C247.316 180.844 246.669 177.914 246.809 177.886C246.95 177.857 247.746 180.737 248.647 184.358C249.548 187.979 250.168 190.909 250.055 190.938Z" fill="#E0E0E0"/>
<path d="M250.175 190.938C250.048 190.981 249.513 189.042 248.133 187.06C247.268 185.889 246.257 184.835 245.127 183.924C245.555 184.032 245.953 184.239 246.289 184.53C247.141 185.162 247.881 185.935 248.478 186.818C249.389 188.018 249.974 189.438 250.175 190.938Z" fill="#E0E0E0"/>
<path d="M250.083 276.269C250.041 276.269 249.949 275.556 249.619 274.287C249.134 272.508 248.476 270.782 247.654 269.134C245.627 264.935 241.93 259.603 237.234 254.271C234.904 251.577 232.651 249.039 230.736 246.609C229.016 244.468 227.46 242.197 226.082 239.815C225.161 238.209 224.376 236.525 223.738 234.783C223.52 234.156 223.365 233.678 223.273 233.357C223.213 233.173 223.175 232.981 223.161 232.787C223.203 232.787 223.414 233.5 223.9 234.683C224.595 236.391 225.414 238.044 226.35 239.63C227.753 241.973 229.323 244.21 231.046 246.323C232.968 248.726 235.228 251.256 237.558 253.951C242.268 259.304 245.958 264.693 247.936 268.97C248.739 270.646 249.359 272.405 249.788 274.216C249.905 274.707 249.992 275.204 250.048 275.706C250.081 275.892 250.093 276.08 250.083 276.269Z" fill="#E0E0E0"/>
<path d="M273.303 249.703C272.911 249.965 272.504 250.203 272.085 250.415C270.984 251.05 269.929 251.765 268.931 252.554C267.451 253.718 266.065 254.998 264.784 256.382C263.326 257.936 261.827 259.746 260.299 261.678C257.243 265.563 254.385 268.999 252.674 271.743C251.801 273.104 251.167 274.252 250.752 275.058C250.56 275.487 250.337 275.902 250.083 276.298C250.103 276.176 250.141 276.059 250.196 275.949C250.287 275.728 250.414 275.393 250.604 274.986C251.141 273.816 251.746 272.678 252.414 271.579C254.082 268.77 256.92 265.285 259.968 261.407C261.503 259.468 263.017 257.658 264.502 256.104C265.804 254.724 267.217 253.455 268.726 252.312C269.752 251.544 270.843 250.868 271.986 250.294C272.387 250.088 272.69 249.959 272.937 249.867C273.046 249.787 273.171 249.731 273.303 249.703Z" fill="#E0E0E0"/>
<path d="M273.753 258.313C272.907 258.505 272.048 258.632 271.183 258.691C269.119 258.908 267.078 259.313 265.086 259.903C263.118 260.553 261.271 261.534 259.623 262.804C258.363 263.795 257.771 264.607 257.715 264.557C257.803 264.335 257.932 264.132 258.095 263.959C258.495 263.441 258.943 262.964 259.433 262.533C261.061 261.16 262.935 260.117 264.953 259.461C266.972 258.855 269.053 258.482 271.155 258.349C272.018 258.256 272.888 258.244 273.753 258.313Z" fill="#E0E0E0"/>
<path d="M258.461 263.617C258.328 263.538 259.489 261.742 260.383 259.34C261.278 256.937 261.425 254.778 261.58 254.799C261.647 255.273 261.632 255.755 261.538 256.225C261.409 257.347 261.157 258.452 260.785 259.518C260.396 260.574 259.895 261.585 259.292 262.533C259.075 262.938 258.795 263.304 258.461 263.617Z" fill="#E0E0E0"/>
<path d="M280.822 226.579C280.69 226.665 280.551 226.739 280.407 226.8L279.196 227.356C278.668 227.584 278.027 227.876 277.302 228.261C276.577 228.646 275.732 229.031 274.845 229.572L273.436 230.378C272.951 230.663 272.465 230.998 271.958 231.319C270.923 231.96 269.888 232.744 268.783 233.536C264.047 237.116 259.915 241.449 256.546 246.366C255.8 247.514 255.061 248.59 254.469 249.66C254.167 250.187 253.85 250.686 253.589 251.185L252.836 252.611C252.336 253.523 251.984 254.393 251.632 255.141C251.28 255.89 251.006 256.567 250.801 257.094L250.295 258.335C250.243 258.485 250.174 258.628 250.09 258.762C250.111 258.606 250.152 258.453 250.21 258.306C250.33 257.971 250.471 257.551 250.647 257.03C250.869 256.357 251.126 255.696 251.414 255.049C251.745 254.286 252.083 253.402 252.569 252.475L253.273 251.007C253.526 250.501 253.836 249.995 254.139 249.453C254.716 248.369 255.448 247.314 256.194 246.124C259.548 241.145 263.715 236.779 268.515 233.215C269.642 232.417 270.691 231.64 271.74 231.012C272.261 230.692 272.747 230.364 273.239 230.086L274.647 229.294C275.542 228.774 276.408 228.396 277.147 228.04C277.775 227.723 278.419 227.44 279.076 227.192L280.322 226.714C280.481 226.645 280.65 226.599 280.822 226.579Z" fill="#E0E0E0"/>
<path d="M262.446 239.038C262.619 238.439 262.97 237.909 263.453 237.52C264.584 236.52 266.028 235.96 267.529 235.938C268.998 235.928 270.454 236.216 271.81 236.786C272.385 236.97 272.93 237.236 273.429 237.577C272.851 237.461 272.285 237.289 271.74 237.064C270.395 236.599 268.985 236.358 267.565 236.351C266.157 236.381 264.795 236.866 263.678 237.734C263.238 238.139 262.826 238.575 262.446 239.038Z" fill="#E0E0E0"/>
<path d="M259.701 241.912C259.581 241.847 260.616 240.308 260.855 238.105C261.095 235.902 260.468 234.163 260.595 234.128C260.721 234.092 260.876 234.513 261.073 235.24C261.575 237.156 261.341 239.193 260.419 240.942C260.06 241.598 259.771 241.94 259.701 241.912Z" fill="#E0E0E0"/>
<path d="M229.779 280.546C230.412 291.951 233.799 303.491 239.009 315.189H261.651C266.621 303.57 269.768 292.022 270.332 280.546H229.779Z" fill="#E0E0E0"/>
<path d="M266.664 298.915C266.664 299.037 259.208 299.136 250.006 299.136C240.804 299.136 233.355 299.037 233.355 298.915C233.355 298.794 240.811 298.702 250.006 298.702C259.201 298.702 266.664 298.801 266.664 298.915Z" fill="#FAFAFA"/>
<path d="M266.157 303.036C266.157 303.157 259.165 303.257 250.548 303.257C241.93 303.257 234.932 303.157 234.932 303.036C234.932 302.914 241.923 302.822 250.548 302.822C259.173 302.822 266.157 302.922 266.157 303.036Z" fill="#FAFAFA"/>
<path d="M239.354 287.98C239.635 291.496 239.635 295.029 239.354 298.544C239.234 298.544 239.142 296.178 239.142 293.262C239.142 290.347 239.255 287.98 239.354 287.98Z" fill="#FAFAFA"/>
<path d="M251.505 287.98C251.625 287.98 251.717 290.425 251.717 293.448C251.717 296.47 251.625 298.915 251.505 298.915C251.386 298.915 251.294 296.47 251.294 293.448C251.294 290.425 251.386 287.98 251.505 287.98Z" fill="#FAFAFA"/>
<path d="M262.897 287.888C263.017 287.888 263.108 290.383 263.108 293.462C263.108 296.542 263.017 299.044 262.897 299.044C262.777 299.044 262.686 296.549 262.686 293.462C262.686 290.376 262.777 287.888 262.897 287.888Z" fill="#FAFAFA"/>
<path d="M269.628 287.98C269.628 288.102 260.883 288.194 250.097 288.194C239.311 288.194 230.567 288.102 230.567 287.98C230.567 287.859 239.304 287.767 250.097 287.767C260.89 287.767 269.628 287.859 269.628 287.98Z" fill="#FAFAFA"/>
<path d="M257.462 174.5H0.851257V182.505H257.462V174.5Z" fill="#EBEBEB"/>
<path d="M23.0498 181.521L3.82233 315.153H7.94803L31.6603 182.505L23.0498 181.521Z" fill="#EBEBEB"/>
<path d="M239.34 180.673L259.623 315.153H255.504L230.722 181.899L239.34 180.673Z" fill="#EBEBEB"/>
<path d="M10.5953 142.26V160.28H7.62421V162.219H10.5953V174.28H66.1585V163.302H62.0469V160.907H66.1585V157.343H67.9891V155.718H65.8065V142.26H10.5953Z" fill="#F5F5F5"/>
<path d="M51.3947 142.288V174.073H66.1444V163.102H62.0328V160.914L66.1444 160.985V157.4H68.0101L67.9749 155.547L65.8065 155.497V142.238L51.3947 142.288Z" fill="#E0E0E0"/>
<path d="M52.4437 161.954C52.4437 162.069 42.397 162.154 29.9988 162.154C17.6005 162.154 7.54675 162.069 7.54675 161.954C7.54675 161.84 17.6005 161.755 29.9988 161.755C42.397 161.755 52.4437 161.848 52.4437 161.954Z" fill="#E0E0E0"/>
<path d="M52.4437 160.123C52.4437 160.237 42.397 160.323 29.9988 160.323C17.6005 160.323 7.54675 160.237 7.54675 160.123C7.54675 160.009 17.6005 159.923 29.9988 159.923C42.397 159.923 52.4437 160.016 52.4437 160.123Z" fill="#E0E0E0"/>
<path d="M55.3303 155.197C55.3303 155.311 45.2765 155.397 32.8853 155.397C20.4941 155.397 10.4333 155.311 10.4333 155.197C10.4333 155.083 20.48 154.998 32.8853 154.998C45.2906 154.998 55.3303 155.09 55.3303 155.197Z" fill="#E0E0E0"/>
<path d="M55.5978 168.634C55.5978 168.748 45.5511 168.84 33.1529 168.84C20.7546 168.84 10.7009 168.748 10.7009 168.634C10.7009 168.52 20.7476 168.434 33.1529 168.434C45.5582 168.434 55.5978 168.512 55.5978 168.634Z" fill="#E0E0E0"/>
<path d="M70.2631 130.17H60.5754V141.832H70.2631V130.17Z" fill="#F5F5F5"/>
<path d="M60.9063 129.407H17.1288V142.559H60.9063V129.407Z" fill="#E0E0E0"/>
<path d="M70.5518 130.519H59.7306V129.429H70.5518C70.6974 129.429 70.8371 129.487 70.9401 129.592C71.0431 129.696 71.1009 129.837 71.1009 129.985C71.0955 130.128 71.0352 130.264 70.9328 130.364C70.8304 130.464 70.6938 130.519 70.5518 130.519Z" fill="#E0E0E0"/>
<path d="M70.5518 142.566H59.7306V141.454H70.5518C70.6974 141.454 70.8371 141.513 70.9401 141.617C71.0431 141.721 71.1009 141.863 71.1009 142.01C71.1009 142.158 71.0431 142.299 70.9401 142.403C70.8371 142.508 70.6974 142.566 70.5518 142.566Z" fill="#E0E0E0"/>
<path d="M57.4706 129.407H52.2958V142.559H57.4706V129.407Z" fill="#EBEBEB"/>
<path d="M26.4715 129.557H21.2968V142.709H26.4715V129.557Z" fill="#EBEBEB"/>
<path d="M70.2631 132.102C70.2631 132.102 68.151 132.159 65.5812 132.159C63.0114 132.159 60.8923 132.159 60.8923 132.102C60.8923 132.045 63.0044 132.038 65.5812 132.038C68.158 132.038 70.2631 132.066 70.2631 132.102Z" fill="#E0E0E0"/>
<path d="M70.2631 133.848C70.2631 133.848 68.151 133.905 65.5812 133.905C63.0114 133.905 60.8923 133.905 60.8923 133.848C60.8923 133.791 63.0044 133.791 65.5812 133.791C68.158 133.791 70.2631 133.812 70.2631 133.848Z" fill="#E0E0E0"/>
<path d="M70.2631 136.001C70.2631 136.001 68.151 136.058 65.5812 136.058C63.0114 136.058 60.8923 136.058 60.8923 136.001C60.8923 135.944 63.0044 135.944 65.5812 135.944C68.158 135.944 70.2631 135.965 70.2631 136.001Z" fill="#E0E0E0"/>
<path d="M70.2631 138.154C70.2631 138.154 68.151 138.211 65.5812 138.211C63.0114 138.211 60.8923 138.211 60.8923 138.154C60.8923 138.097 63.0044 138.097 65.5812 138.097C68.158 138.097 70.2631 138.118 70.2631 138.154Z" fill="#E0E0E0"/>
<path d="M70.2631 140.307C70.2631 140.307 68.151 140.364 65.5812 140.364C63.0114 140.364 60.8923 140.364 60.8923 140.307C60.8923 140.25 63.0044 140.25 65.5812 140.25C68.158 140.25 70.2631 140.271 70.2631 140.307Z" fill="#E0E0E0"/>
<path d="M49.5078 134.818H29.8157V137.184H49.5078V134.818Z" fill="#EBEBEB"/>
<path d="M51.7115 116.641L57.1608 129.6H53.6546L51.2327 122.679L51.7115 116.641Z" fill="#E0E0E0"/>
<path d="M34.9834 104.922L32.8783 129.6H50.6836L52.6408 104.922H34.9834Z" fill="#EBEBEB"/>
<path d="M36.7224 106.875L34.8778 127.547L48.2476 127.725L50.05 106.754L36.7224 106.875Z" fill="#FAFAFA"/>
<path d="M39.5596 109.741L38.5106 123.961H45.6426L46.8958 109.741H39.5596Z" fill="#E0E0E0"/>
<path d="M244.17 13.1939L237.588 13.23L237.765 46.3969L244.348 46.3608L244.17 13.1939Z" fill="#E0E0E0"/>
<path d="M197.599 13.2782L180.547 13.3716L180.645 31.6836L197.697 31.5902L197.599 13.2782Z" fill="#EBEBEB"/>
<path d="M214.566 13.1927L197.514 13.2861L197.612 31.5981L214.664 31.5047L214.566 13.1927Z" fill="#F5F5F5"/>
<path d="M180.573 18.4433C191.901 18.5431 203.264 18.4433 214.592 18.2865C214.634 18.2781 214.671 18.2554 214.698 18.2223C214.725 18.1891 214.74 18.1476 214.74 18.1047C214.74 18.0618 214.725 18.0203 214.698 17.9871C214.671 17.954 214.634 17.9313 214.592 17.9229C203.267 17.8564 191.929 17.9253 180.58 18.1297C180.539 18.1297 180.499 18.1462 180.47 18.1756C180.441 18.205 180.425 18.2449 180.425 18.2865C180.425 18.3281 180.441 18.368 180.47 18.3974C180.499 18.4268 180.539 18.4433 180.58 18.4433H180.573Z" fill="#E0E0E0"/>
<path d="M200.899 31.2942L169.921 31.4639L170.001 46.3829L200.979 46.2132L200.899 31.2942Z" fill="#EBEBEB"/>
<path d="M231.728 31.1184L200.75 31.2881L200.83 46.2071L231.807 46.0374L231.728 31.1184Z" fill="#F5F5F5"/>
<path d="M169.935 35.6223C190.514 35.8575 211.164 35.6223 231.743 35.3157C231.791 35.3157 231.838 35.2962 231.872 35.2615C231.907 35.2267 231.926 35.1796 231.926 35.1304C231.926 35.0813 231.907 35.0341 231.872 34.9994C231.838 34.9646 231.791 34.9451 231.743 34.9451C211.164 34.8382 190.507 34.8453 169.935 35.3086C169.894 35.3086 169.854 35.3251 169.825 35.3545C169.796 35.384 169.78 35.4238 169.78 35.4654C169.78 35.507 169.796 35.5469 169.825 35.5763C169.854 35.6057 169.894 35.6223 169.935 35.6223Z" fill="#E0E0E0"/>
<path d="M278.365 46.3926H158.353V51.7387H278.365V46.3926Z" fill="#E0E0E0"/>
<path d="M182.875 48.9658H178.003V67.2068H182.875V48.9658Z" fill="#E0E0E0"/>
<path d="M255.603 48.9658H250.731V67.2068H255.603V48.9658Z" fill="#E0E0E0"/>
<path d="M250.589 0.827221L244.006 0.863281L244.25 46.4829L250.832 46.4468L250.589 0.827221Z" fill="#EBEBEB"/>
<path d="M260.878 9.32482L250.648 9.38086L250.846 46.347L261.075 46.291L260.878 9.32482Z" fill="#F5F5F5"/>
<path d="M260.813 16.4546C259.113 16.6331 257.403 16.6926 255.694 16.6328C253.989 16.6928 252.281 16.6332 250.583 16.4546C253.989 16.217 257.407 16.217 260.813 16.4546Z" fill="#E0E0E0"/>
<path d="M260.813 14.9004C259.113 15.0789 257.403 15.1384 255.694 15.0786C253.989 15.1386 252.281 15.079 250.583 14.9004C253.989 14.6628 257.407 14.6628 260.813 14.9004Z" fill="#E0E0E0"/>
<path d="M260.813 40.7402C257.407 40.9778 253.989 40.9778 250.583 40.7402C253.989 40.5026 257.407 40.5026 260.813 40.7402Z" fill="#E0E0E0"/>
<path d="M260.813 39.186C257.407 39.4236 253.989 39.4236 250.583 39.186C253.989 38.9484 257.407 38.9484 260.813 39.186Z" fill="#E0E0E0"/>
<path d="M255.863 35.8001C255.765 35.8001 255.68 32.0721 255.68 27.4673C255.68 22.8625 255.765 19.1416 255.863 19.1416C255.962 19.1416 256.039 22.8696 256.039 27.4673C256.039 32.065 255.955 35.8001 255.863 35.8001Z" fill="#E0E0E0"/>
<path d="M272.057 18.4146H260.919V46.3213H272.057V18.4146Z" fill="#EBEBEB"/>
<path d="M249.098 8.62763C249.099 9.00718 248.989 9.3786 248.782 9.69486C248.575 10.0111 248.279 10.258 247.933 10.4042C247.587 10.5505 247.206 10.5894 246.839 10.5163C246.471 10.4431 246.133 10.261 245.867 9.99315C245.601 9.72527 245.42 9.38362 245.347 9.01147C245.273 8.63933 245.31 8.25342 245.453 7.90263C245.596 7.55184 245.839 7.25195 246.151 7.04094C246.462 6.82993 246.829 6.71729 247.204 6.71729C247.705 6.71728 248.185 6.91832 248.54 7.27638C248.895 7.63444 249.096 8.12032 249.098 8.62763Z" fill="#E0E0E0"/>
<path d="M247.788 13.9023H246.619V41.0393H247.788V13.9023Z" fill="#E0E0E0"/>
</svg>
